<?xml version="1.0" encoding="UTF-8" standalone="no"?>
<!-- Created with Inkscape (http://www.inkscape.org/) -->

<svg
   xmlns:dc="http://purl.org/dc/elements/1.1/"
   xmlns:cc="http://creativecommons.org/ns#"
   xmlns:rdf="http://www.w3.org/1999/02/22-rdf-syntax-ns#"
   xmlns:svg="http://www.w3.org/2000/svg"
   xmlns="http://www.w3.org/2000/svg"
   xmlns:sodipodi="http://sodipodi.sourceforge.net/DTD/sodipodi-0.dtd"
   xmlns:inkscape="http://www.inkscape.org/namespaces/inkscape"
   version="1.1"
   id="svg2"
   width="400"
   height="376.61676"
   viewBox="0 0 400 376.61676"
   sodipodi:docname="bureaucrat.svg"
   inkscape:version="0.92.5 (0.92.5+68)">
  <metadata
     id="metadata8">
    <rdf:RDF>
      <cc:Work
         rdf:about="">
        <dc:format>image/svg+xml</dc:format>
        <dc:type
           rdf:resource="http://purl.org/dc/dcmitype/StillImage" />
        <dc:title></dc:title>
      </cc:Work>
    </rdf:RDF>
  </metadata>
  <defs
     id="defs6" />
  <sodipodi:namedview
     pagecolor="#ffffff"
     bordercolor="#666666"
     borderopacity="1"
     objecttolerance="10"
     gridtolerance="10"
     guidetolerance="10"
     inkscape:pageopacity="0"
     inkscape:pageshadow="2"
     inkscape:window-width="1920"
     inkscape:window-height="1056"
     id="namedview4"
     showgrid="false"
     fit-margin-top="0"
     fit-margin-left="0"
     fit-margin-right="0"
     fit-margin-bottom="0"
     inkscape:zoom="0.4609375"
     inkscape:cx="172.65164"
     inkscape:cy="503.41758"
     inkscape:window-x="0"
     inkscape:window-y="24"
     inkscape:window-maximized="1"
     inkscape:current-layer="svg2" />
  <path
     style="fill:#000000;stroke-width:0.83392775"
     d="m 159.51111,375.93412 c -2.75196,-0.16157 -11.55632,0 -19.5973,0 H 11.005677 C -0.58266596,371.40329 -0.75662328,354.51161 0.54472096,340.36624 2.9993038,313.68601 12.123724,286.48238 25.179697,266.9188 c 5.821649,-8.72343 15.996902,-19.1396 24.715116,-25.30039 9.454322,-6.68095 31.858292,-17.25999 67.658477,-31.94797 l 14.74926,-6.05128 1.76443,7.64344 c 5.87327,25.44224 16.35949,59.5484 25.29761,82.27997 5.41503,13.77153 0,0 24.67559,53.56748 14.17226,30.76613 14.91131,30.7168 17.79272,28.82407 4.79351,-3.14874 29.26715,-58.51373 38.7681,-82.80852 9.27381,-23.71394 16.28005,-46.06398 23.11435,-73.7353 2.08655,-8.44819 3.88657,-15.44526 4.00003,-15.54903 0.59058,-0.54017 49.82291,20.66588 62.75088,27.02895 16.63508,8.18769 25.07165,13.987 34.28284,23.56609 18.07528,18.79718 31.6027,52.4188 34.59139,85.97488 1.25688,14.1119 2.00641,35.52293 -10.3695,35.52293 H 262.08418 c -11.19096,0 -92.13198,0.61298 -102.57307,0 z m 36.44535,-50.49382 c -7.32863,-13.19344 -13.51238,-25.81316 -13.51238,-27.57591 0,-2.6262 5.671,-27.00495 6.46711,-27.80105 0.413,-0.413 6.35076,-0.6467 13.19501,-0.51931 l 12.4441,0.23159 1.85286,7.50535 c 1.01907,4.12795 3.42479,10.52795 3.30184,14.40194 l 1.44898,6.8966 -3.16622,6.44625 c -5.05052,10.28259 -15.72115,29.37926 -16.41621,29.37926 -0.34947,0 -2.87627,-4.03412 -5.61509,-8.96472 z m -7.96597,-64.21725 c -0.95953,-1.55254 -5.52336,-27.64691 -5.05077,-28.87847 0.45323,-1.18111 2.69664,-1.3466 18.25485,-1.3466 14.2872,0 17.92889,0.22988 18.71871,1.18156 0.76316,0.91955 1.57132,4.60043 -1.77422,15.21918 l -2.75483,14.03763 -13.48952,0.22884 c -7.41924,0.12586 -13.67614,-0.0731 -13.90422,-0.44214 z m 0.54052,-49.95824 c -0.29268,-0.76272 -1.31289,-5.68466 -2.26713,-10.93766 l -1.73498,-9.5509 -5.83749,-1.49098 c -3.21062,-0.82004 -6.24391,-1.62091 -6.74063,-1.77973 -0.49673,-0.15882 -3.98481,3.3701 -7.75124,7.84203 -3.76652,4.47194 -7.35883,8.1308 -7.98303,8.1308 -1.88559,0 -18.80448,-10.14667 -18.80448,-11.27752 0,-0.5784 1.56094,-5.43779 3.46889,-10.79864 l 3.46889,-9.74702 -4.92827,-4.91211 -4.92826,-4.9121 -10.39449,3.78406 c -12.05351,4.38807 -10.05792,5.24093 -17.18333,-7.34365 -2.54365,-4.49233 -4.40197,-8.52831 -4.1297,-8.96884 0.37694,-0.60985 14.95141,-13.13389 16.08755,-13.82419 0.12359,-0.0751 -0.58958,-3.17903 -1.58488,-6.89765 l -1.80962,-6.76113 -4.25261,-0.84432 c -2.33892,-0.46438 -6.87941,-1.27596 -10.09003,-1.80351 -3.210621,-0.52755 -6.306577,-1.33424 -6.879903,-1.79263 -0.731938,-0.58518 -1.042409,-3.87789 -1.042409,-11.05333 0,-7.18072 0.309971,-10.46479 1.042409,-11.04343 0.573326,-0.45296 5.505925,-1.61635 10.961483,-2.58533 5.45547,-0.96898 10.00997,-1.86394 10.12121,-1.98882 0.38519,-0.43265 3.78136,-13.37571 3.54603,-13.51427 -1.15324,-0.67907 -16.49793,-14.06095 -16.49793,-14.3876 0,-0.55802 8.82821,-16.14975 10.22838,-18.06458 1.00855,-1.37934 1.72681,-1.23946 11.576,2.2545 l 10.50073,3.72506 4.82427,-4.87515 4.82428,-4.87516 -3.46439,-9.73432 c -1.90536,-5.35388 -3.4643,-10.22608 -3.4643,-10.827109 0,-1.147718 16.87036,-11.236376 18.78964,-11.236376 0.81583,0 10.65843,10.852227 14.3011,15.768115 0.13875,0.18724 3.35139,-0.417206 7.13921,-1.343208 l 6.88692,-1.683658 1.79774,-10.075765 C 187.31541,6.297022 188.36954,1.366274 188.66916,0.88147 189.00663,0.335431 193.33057,0 200.03195,0 c 9.3178,0 10.89182,0.192321 11.35017,1.386764 0.29268,0.762718 1.31289,5.686578 2.26713,10.941916 l 1.73498,9.555152 5.83749,1.518933 c 3.21063,0.835412 6.29264,1.540556 6.84893,1.567 0.55628,0.02644 4.06078,-3.516974 7.78779,-7.874246 3.727,-4.357272 7.2706,-7.922314 7.87466,-7.922314 1.95264,0 18.76805,10.188338 18.76805,11.371431 0,0.630041 -1.50107,5.224844 -3.33571,10.210684 -1.83464,4.98584 -3.33571,9.38254 -3.33571,9.77045 0,0.38791 2.11302,2.8406 4.69561,5.45042 l 4.69561,4.74513 10.50074,-3.72506 c 9.84923,-3.49396 10.56745,-3.63384 11.57603,-2.2545 1.39717,1.91074 10.22839,17.50598 10.22839,18.06253 0,0.31277 -14.83294,13.23013 -16.49799,14.36738 -0.23372,0.15963 3.15568,13.09805 3.54609,13.53654 0.11118,0.12488 4.66572,1.01984 10.12122,1.98882 5.45549,0.96898 10.38815,2.13237 10.96148,2.58533 0.73242,0.57864 1.04241,3.86271 1.04241,11.04343 0,7.17544 -0.31053,10.46815 -1.04241,11.05333 -0.57333,0.45839 -3.66928,1.26508 -6.87991,1.79263 -3.21062,0.52755 -7.75115,1.33913 -10.09009,1.80351 l -4.25259,0.84432 -1.8096,6.76113 c -0.99528,3.71862 -1.70848,6.8185 -1.5849,6.88863 1.19399,0.67749 16.48629,14.06774 16.48629,14.43573 0,0.2685 -2.47645,4.75283 -5.50322,9.96517 -4.86456,8.37716 -5.71138,9.41237 -7.29687,8.92017 -0.9865,-0.30625 -5.73395,-2.00138 -10.54988,-3.76697 l -8.75625,-3.21014 -4.92826,4.92095 -4.92827,4.92094 3.4689,9.74702 c 1.90788,5.36085 3.46889,10.21841 3.46889,10.79456 0,1.10493 -17.01939,11.2816 -18.86728,11.2816 -0.59268,0 -4.00155,-3.54075 -7.57524,-7.86833 -3.57369,-4.32757 -7.06053,-7.88405 -7.74852,-7.90326 -0.68799,-0.0193 -3.87734,0.637 -7.08744,1.45828 l -5.83656,1.49322 -1.73592,9.60989 c -0.95475,5.28544 -1.97539,10.23392 -2.26807,10.99664 -0.45861,1.19514 -2.03747,1.38676 -11.42555,1.38676 -9.38809,0 -10.96695,-0.19162 -11.42556,-1.38676 z m 21.84965,-55.74096 c 9.73264,-2.04339 17.38284,-6.35239 25.01784,-14.09139 10.33197,-10.4727 14.59373,-20.7248 14.59373,-35.10667 0,-14.4977 -4.26699,-24.77258 -14.55798,-35.05542 -12.97723,-12.96699 -28.58985,-17.77734 -45.90178,-14.14265 -9.7201,2.04076 -17.38141,6.353 -25.02721,14.08681 -10.29476,10.41318 -14.58432,20.69505 -14.58432,34.95761 0,14.37206 4.35361,24.89235 14.59374,35.26491 5.0386,5.10381 8.20211,7.50592 12.92584,9.81484 10.73964,5.24946 21.58508,6.656 32.94014,4.27196 z"
     id="path817"
     inkscape:connector-curvature="0"
     sodipodi:nodetypes="sscccsscccscsscssssssssssccscsssccsssccccsccccssccccccccsccscsccccsccccccsscccccssscsccssssccscsccccscsccccssssccccssccccscscssssscscss" />
</svg>
