<?xml version="1.0" encoding="UTF-8" standalone="no"?>
<!-- Created with Inkscape (http://www.inkscape.org/) -->

<svg
   xmlns:dc="http://purl.org/dc/elements/1.1/"
   xmlns:cc="http://creativecommons.org/ns#"
   xmlns:rdf="http://www.w3.org/1999/02/22-rdf-syntax-ns#"
   xmlns:svg="http://www.w3.org/2000/svg"
   xmlns="http://www.w3.org/2000/svg"
   xmlns:sodipodi="http://sodipodi.sourceforge.net/DTD/sodipodi-0.dtd"
   xmlns:inkscape="http://www.inkscape.org/namespaces/inkscape"
   version="1.1"
   id="svg2"
   width="426.07553"
   height="426"
   viewBox="0 0 426.07553 426"
   sodipodi:docname="poll.svg"
   inkscape:version="0.92.5 (0.92.5+68)">
  <metadata
     id="metadata8">
    <rdf:RDF>
      <cc:Work
         rdf:about="">
        <dc:format>image/svg+xml</dc:format>
        <dc:type
           rdf:resource="http://purl.org/dc/dcmitype/StillImage" />
        <dc:title></dc:title>
      </cc:Work>
    </rdf:RDF>
  </metadata>
  <defs
     id="defs6" />
  <sodipodi:namedview
     pagecolor="#ffffff"
     bordercolor="#666666"
     borderopacity="1"
     objecttolerance="10"
     gridtolerance="10"
     guidetolerance="10"
     inkscape:pageopacity="0"
     inkscape:pageshadow="2"
     inkscape:window-width="1920"
     inkscape:window-height="1056"
     id="namedview4"
     showgrid="false"
     fit-margin-top="0"
     fit-margin-left="0"
     fit-margin-right="0"
     fit-margin-bottom="0"
     inkscape:zoom="0.4609375"
     inkscape:cx="649.06779"
     inkscape:cy="319.30508"
     inkscape:window-x="0"
     inkscape:window-y="24"
     inkscape:window-maximized="1"
     inkscape:current-layer="svg2" />
  <path
     style="fill:#000000"
     d="M 0,213 V 0 H 10.5 21 V 21 42 H 127.5 234 v 43 43 H 127.5 21 v 21 21 H 159.5 298 v 43 43 H 159.5 21 v 21 21 H 95.5 170 v 43 43 H 95.5 21 v 21 21 H 10.5 0 Z m 234.5,128 21.50455,-43 h 9.99772 c 6.02934,0 9.99773,0.39877 9.99773,1.00465 0,0.55256 -9.45105,19.90256 -21.00233,43 L 233.99535,384 H 223.4954 212.99545 Z m 37.49353,42.11694 C 261.56528,379.73145 256,372.46828 256,362.24401 c 0,-13.27155 13.19226,-23.7241 25.75,-20.40236 19.01103,5.02874 22.24713,30.43161 5.0032,39.27436 -4.36694,2.23938 -11.1801,3.16303 -14.75967,2.00093 z m -67.50211,-43.98192 c -15.94269,-7.24261 -16.70479,-30.00303 -1.27055,-37.94576 13.28275,-6.83554 29.35626,1.66639 30.55849,16.16362 0.55358,6.67552 -1.02311,11.7162 -5.12664,16.38987 -3.94631,4.49459 -9.84588,7.21333 -15.65272,7.21333 -2.475,0 -6.30386,-0.81948 -8.50858,-1.82106 z M 342,255.03033 c 0,-0.5718 9.45105,-19.93754 21.00233,-43.03498 L 384.00465,170 h 10.49768 c 5.77372,0 10.47468,0.3375 10.44658,0.75 -0.0281,0.4125 -9.5906,19.65 -21.25,42.75 l -21.19891,42 -10.25,0.28498 c -6.60992,0.18378 -10.25,-0.0842 -10.25,-0.75465 z m 58.35819,0.0587 c -16.49607,-4.15921 -21.95691,-25.57298 -9.2871,-36.41786 8.42726,-7.21342 19.61135,-7.40092 27.51516,-0.46128 7.03311,6.17515 9.40247,16.09469 5.86602,24.5586 -3.8147,9.12988 -14.69084,14.69141 -24.09408,12.32054 z M 334.46024,211.9357 c -4.77077,-1.38728 -11.10316,-7.43384 -13.00755,-12.42041 -5.34097,-13.98513 4.60115,-28.77539 19.4087,-28.8731 12.23547,-0.0807 21.17284,8.8393 21.11665,21.07569 -0.0658,14.33258 -13.58885,24.26819 -27.5178,20.21782 z M 278,126.99535 c 0,-0.55256 9.45105,-19.90256 21.00233,-43 L 320.00465,42 h 10.49995 10.49995 L 319.5,85 297.99545,128 h -9.99772 C 281.96839,128 278,127.60123 278,126.99535 Z m 58.58929,-0.13834 c -9.03423,-2.06187 -15.35256,-9.16324 -16.29732,-18.31705 -2.01872,-19.55954 20.90601,-31.16064 35.04961,-17.73691 11.26983,10.69621 7.51183,30.73976 -6.56618,35.0212 -5.72234,1.7403 -8.17518,1.94817 -12.18611,1.03276 z M 270.23888,83.66513 c -17.2848,-6.26868 -19.22501,-29.73693 -3.19448,-38.63956 10.69243,-5.93809 24.69256,-1.07936 29.40787,10.20596 6.94573,16.62346 -9.52277,34.48679 -26.21339,28.4336 z"
     id="path817"
     inkscape:connector-curvature="0" />
</svg>
