<?xml version="1.0" encoding="UTF-8" standalone="no"?>
<!-- Created with Inkscape (http://www.inkscape.org/) -->

<svg
   xmlns:dc="http://purl.org/dc/elements/1.1/"
   xmlns:cc="http://creativecommons.org/ns#"
   xmlns:rdf="http://www.w3.org/1999/02/22-rdf-syntax-ns#"
   xmlns:svg="http://www.w3.org/2000/svg"
   xmlns="http://www.w3.org/2000/svg"
   xmlns:sodipodi="http://sodipodi.sourceforge.net/DTD/sodipodi-0.dtd"
   xmlns:inkscape="http://www.inkscape.org/namespaces/inkscape"
   version="1.1"
   id="svg2"
   width="194.15907"
   height="400"
   viewBox="0 0 194.15908 399.99999"
   sodipodi:docname="paramilitary.svg"
   inkscape:version="0.92.5 (0.92.5+68)">
  <metadata
     id="metadata8">
    <rdf:RDF>
      <cc:Work
         rdf:about="">
        <dc:format>image/svg+xml</dc:format>
        <dc:type
           rdf:resource="http://purl.org/dc/dcmitype/StillImage" />
        <dc:title></dc:title>
      </cc:Work>
    </rdf:RDF>
  </metadata>
  <defs
     id="defs6" />
  <sodipodi:namedview
     pagecolor="#ffffff"
     bordercolor="#666666"
     borderopacity="1"
     objecttolerance="10"
     gridtolerance="10"
     guidetolerance="10"
     inkscape:pageopacity="0"
     inkscape:pageshadow="2"
     inkscape:window-width="1920"
     inkscape:window-height="1056"
     id="namedview4"
     showgrid="false"
     fit-margin-top="0"
     fit-margin-left="0"
     fit-margin-right="0"
     fit-margin-bottom="0"
     inkscape:zoom="1.6498882"
     inkscape:cx="-5.947161"
     inkscape:cy="215.36827"
     inkscape:window-x="0"
     inkscape:window-y="24"
     inkscape:window-maximized="1"
     inkscape:current-layer="svg2" />
  <path
     style="fill:#000000;stroke-width:1.02210104"
     d="m 13.774124,399.38328 c -6.3029597,-1.47604 -6.2885097,-9.76116 0.0389,-22.38183 4.609111,-9.1932 4.667531,-9.4385 5.121011,-21.50013 l 0.4587,-12.20085 -3.05901,-1.80697 c -4.154521,-2.45417 -4.808601,-5.95949 -2.603931,-13.95485 1.008881,-3.6588 2.229551,-9.6175 2.712631,-13.24154 1.01548,-7.61842 3.43333,-15.59181 6.06038,-19.98546 2.26423,-3.78683 4.05707,-12.32705 4.28934,-20.43228 l 0.17535,-6.12289 -3.9835,-0.64751 c -4.52482,-0.73549 -8.698981,-4.7987 -8.698981,-8.46782 0,-2.84541 3.087921,-12.02172 5.900981,-17.53571 2.33132,-4.56978 2.94553,-8.29447 1.804,-10.93951 -0.44071,-1.02111 0.11696,-5.43605 1.2912,-10.22101 1.13683,-4.63291 2.34607,-11.48728 2.6872,-15.23196 0.59573,-6.53982 0.53594,-6.78647 -1.51539,-6.25002 -1.97834,0.51734 -2.08225,0.26607 -1.41072,-3.41251 0.39864,-2.18403 1.58103,-5.19183 2.62747,-6.684 1.04641,-1.49217 1.90258,-2.98038 1.90258,-3.30711 0,-0.32674 -2.03846,-1.10738 -4.52996,-1.73471 -2.49147,-0.62739 -4.77676,-1.78386 -5.07841,-2.56998 -0.30151,-0.78613 -1.25284,-1.42932 -2.11369,-1.42932 -1.956791,0 -1.950631,-0.54907 0.0728,-6.4875 l 1.63805,-4.80742 -2.69247,-2.1179 C 11.944484,163.61233 6.6693543,155.80712 2.5652943,147.70815 0.48720431,143.60722 -0.01946569,141.127 5.6430777e-4,135.15339 0.01306431,131.05911 0.50614431,125.63945 1.0935643,123.10975 c 0.58739,-2.5297 1.23564,-6.80269 1.4405,-9.49553 0.22998,-3.02319 1.96041,-8.1767 4.5236,-13.47221 2.28308,-4.716881 3.8900697,-9.256326 3.5710597,-10.087665 -0.8285497,-2.159114 2.04617,-7.208261 5.328471,-9.358887 1.53931,-1.008596 3.85191,-3.085454 5.13915,-4.615223 1.2872,-1.529779 4.76571,-3.818245 7.72998,-5.085473 2.96433,-1.267242 5.722049,-2.874966 6.128299,-3.572719 0.9451,-1.623209 8.94236,-3.881796 12.14292,-3.429402 2.00181,0.282962 2.67343,-0.295675 3.67174,-3.163466 0.67199,-1.930376 0.95803,-3.936566 0.63561,-4.458205 -0.32237,-0.521638 0.0287,-1.328878 0.78179,-1.793863 1.09904,-0.679238 0.99034,-1.262653 -0.55286,-2.967892 l -1.92083,-2.122459 -2.19282,2.06006 c -5.02691,4.722487 -6.14957,1.646612 -6.14957,-16.848806 0,-11.8132 0.25457,-13.76345 2.29395,-17.57914 1.26166,-2.36051 3.48167,-5.120193 4.93336,-6.132613 1.45171,-1.0124203 3.99987,-3.1056203 5.6626,-4.6515503 3.0971,-2.87952 6.83279,-3.63232 8.70994,-1.75517 1.41912,1.41911 4.14839,0.26067 4.74303,-2.01317 0.50874,-1.94551 6.53359,-3.48876 7.50213,-1.92165 0.29512,0.47759 1.04298,0.55543 1.66183,0.17296 0.72403,-0.44749 0.89248,-0.0891 0.47249,1.00542 -0.42614,1.11057 -0.13164,1.70083 0.84841,1.70083 0.84202,0 1.50106,0.93949 1.50106,2.13989 0,1.2803 0.82116,2.35462 2.0442,2.67446 1.12431,0.29401 2.0442,0.90072 2.0442,1.34825 0,0.4475203 1.60982,3.2580503 3.57735,6.2456133 1.96755,2.98757 3.57735,5.83137 3.57735,6.31956 0,0.4882 0.89304,2.14176 1.98451,3.67459 1.22589,1.7216 2.10499,4.90594 2.29973,8.3302 0.29576,5.20078 0.53625,5.65098 3.89258,7.28721 1.967546,0.95919 4.727206,1.77771 6.132596,1.81894 2.57944,0.0757 14.02637,7.318106 13.53119,8.561138 -0.85794,2.153599 3.87162,9.234828 10.13252,15.170774 5.76268,5.463577 7.96275,6.906691 10.90749,7.154704 3.05722,0.257505 4.33118,1.162597 7.44097,5.286419 5.88981,7.810436 13.32588,21.737695 13.90282,26.039115 0.62167,4.63472 -1.58073,9.5567 -5.39435,12.05547 -4.15328,2.72132 -15.68804,5.47949 -22.91541,5.47949 -5.95,0 -7.26394,-0.39363 -12.03182,-3.60452 -2.94382,-1.98248 -5.34533,-3.24733 -5.33674,-2.81078 0.0287,1.45873 1.49315,2.86887 4.22293,4.06645 5.38916,2.36428 7.72782,7.08715 8.50196,17.16932 0.96545,12.57334 1.36726,14.0001 3.73173,13.24965 2.30133,-0.73042 2.31596,-0.4984 0.41791,6.63379 -0.81586,3.0657 -1.38532,5.62315 -1.26549,5.68324 0.11978,0.06 2.5176,1.55579 5.32838,3.32383 5.76205,3.62443 8.04623,6.62929 7.16058,9.41975 -0.41759,1.3157 0.0125,2.0934 1.40634,2.53539 2.62128,0.83195 8.29774,6.6595 8.29774,8.51856 0,0.79668 0.57493,1.23631 1.27763,0.97695 7.8421,-2.89424 12.32158,-3.93251 13.19562,-3.05851 0.65504,0.65504 -0.12649,2.83665 -2.25518,6.29643 -1.79162,2.91173 -3.08886,5.42129 -2.88281,5.5767 3.24368,2.44666 11.78276,7.83959 20.5612,12.98559 6.04318,3.54256 10.98056,6.92783 10.97193,7.52282 -0.055,3.79384 -1.9431,3.34112 -10.75685,-2.57917 -9.84419,-6.61253 -22.39461,-14.2258 -23.45099,-14.2258 -0.35671,0 -0.3643,0.45993 -0.0159,1.02209 0.34742,0.56217 -0.34637,1.0221 -1.54172,1.0221 -1.67611,0 -2.03126,-0.44786 -1.55218,-1.95732 0.4198,-1.3226 -0.0907,-2.45604 -1.57452,-3.49529 -1.98396,-1.38961 -2.50556,-1.34906 -5.40732,0.42036 -1.76639,1.07707 -3.9015,1.92948 -4.74473,1.89425 -2.66905,-0.1115 -10.75365,-6.67905 -10.43173,-8.47431 0.42124,-2.34948 -1.08505,-2.08608 -2.68055,0.46872 -0.73632,1.17906 -1.59808,1.88444 -1.915,1.56754 -0.84081,-0.84086 -5.45625,5.93829 -11.56437,16.98565 -2.44841,4.42822 -2.61416,5.43471 -1.88818,11.46506 0.43776,3.63592 1.46599,7.90657 2.28501,9.49037 0.81903,1.58386 1.79983,4.70356 2.17953,6.93276 0.37971,2.2292 1.36907,6.58881 2.19857,9.68805 1.9566,7.31026 0.83823,10.57356 -4.19265,12.2339 -3.56767,1.17747 -3.61696,1.26607 -2.18775,3.93308 0.80417,1.50067 1.74623,3.41839 2.09346,4.26161 0.34722,0.84324 1.30666,2.68302 2.13214,4.08842 1.25133,2.1305 1.39823,6.33779 0.88373,25.3092 -0.54354,20.04256 -0.40553,23.3423 1.15832,27.69114 2.07666,5.775 1.45541,11.20127 -1.59884,13.96538 -1.66993,1.51121 -2.02422,3.15481 -2.02422,9.38998 0,4.93036 0.56878,8.658 1.63598,10.72171 1.6245,3.1415 8.62647,10.36356 18.67567,19.26281 4.51682,3.99996 5.24088,5.16097 5.24088,8.40377 0,3.68426 -0.1179,3.79688 -5.65892,5.40772 -5.27772,1.53427 -6.05221,1.52342 -11.49864,-0.1613 -4.3629,-1.34946 -7.08542,-3.07738 -10.76553,-6.83265 -4.09624,-4.17983 -5.38731,-4.93352 -7.66577,-4.47504 -3.49593,0.70346 -11.110646,-2.84126 -11.978666,-5.57611 -0.35489,-1.11818 0.61218,-7.1887 2.14903,-13.49007 3.645266,-14.94596 3.145836,-19.70748 -2.37823,-22.67436 -6.56569,-3.52634 -7.20543,-6.52302 -6.4355,-30.14665 0.21081,-6.46478 0.99277,-13.36397 1.73791,-15.33152 1.24435,-3.2856 1.08334,-4.36921 -1.97452,-13.28731 -4.09557,-11.94443 -4.29506,-12.26521 -7.6292,-12.26521 -1.48252,0 -4.44502,-1.2124 -6.58331,-2.69425 -3.80836,-2.63911 -3.8878,-2.82618 -3.8878,-9.15705 0,-3.5546 -0.52986,-10.02561 -1.17751,-14.38003 -0.94043,-6.32316 -1.35336,-7.44179 -2.05089,-5.55613 -0.48037,1.29854 -1.85045,3.73309 -3.04457,5.41014 -1.79548,2.52152 -2.06615,3.96218 -1.56394,8.32516 0.334,2.90181 0.88782,6.23462 1.23069,7.40628 0.47028,1.6069 -0.80465,3.80308 -5.18962,8.93977 -5.59597,6.55522 -5.7884,6.97386 -5.15298,11.21111 0.88409,5.89551 -0.93893,13.82108 -4.454,19.36373 -3.04877,4.80743 -3.33499,6.75385 -4.44458,30.22561 -0.43429,9.18726 -0.79921,10.86458 -2.83518,13.0318 -1.28523,1.36804 -3.14934,2.48733 -4.14247,2.48733 -2.69337,0 -3.12312,1.33485 -3.73003,11.58457 -0.69445,11.72912 -0.68465,12.40398 0.26542,18.25763 0.63686,3.92399 0.38185,5.56297 -1.39651,8.97484 -1.242879,2.38446 -2.175689,6.07361 -2.175689,8.6043 0,2.9342 -0.71535,5.33952 -2.11841,7.12326 -1.90373,2.4202 -2.7581,2.68105 -8.43234,2.5745 -3.47268,-0.0651 -7.23385,-0.33397 -8.358161,-0.59726 z M 158.91247,193.63473 c -0.34742,-0.56216 -1.09164,-1.0221 -1.6538,-1.0221 -0.56215,0 -0.73783,0.45994 -0.39041,1.0221 0.34745,0.56215 1.09164,1.0221 1.6538,1.0221 0.56215,0 0.73786,-0.45995 0.39041,-1.0221 z m 4.70955,-3.38358 c 0.94516,-3.53407 0.15811,-3.92463 -4.20863,-2.08843 l -3.56723,1.50003 2.55525,1.96178 c 3.16392,2.42906 4.28238,2.13483 5.22061,-1.37338 z m -41.6199,-1.91253 c -0.26989,-0.43686 0.0159,-1.74329 0.63783,-2.90325 0.93775,-1.75221 0.72959,-2.44165 -1.23036,-4.0755 -1.29748,-1.08162 -2.94841,-1.98185 -3.66876,-2.00058 -0.72033,-0.0192 -1.56774,-0.7064 -1.8831,-1.52823 -0.31526,-0.82183 -1.42732,-1.76526 -2.47102,-2.09652 -1.24649,-0.39562 -1.69037,-1.19809 -1.29363,-2.33862 0.54999,-1.58108 0.4512,-1.59327 -1.10434,-0.13664 -1.47267,1.379 -1.52792,2.02012 -0.40064,4.64651 1.96822,4.58562 10.29249,13.83599 11.17124,12.41412 0.40352,-0.6529 0.51278,-1.5445 0.24275,-1.98132 z M 108.06294,74.426781 c 1.38408,-0.37091 2.29973,-1.406777 2.29973,-2.601614 0,-1.09192 -0.37272,-1.754956 -0.82826,-1.473418 -1.6842,1.040884 -10.095576,-1.867982 -16.392926,-5.669085 -5.86153,-3.538054 -9.34271,-4.340212 -7.76631,-1.789577 0.32908,0.532483 1.02651,0.703528 1.54983,0.380104 0.52327,-0.323425 0.95144,0.588967 0.95144,2.027529 0,2.149414 0.48378,2.615575 2.71431,2.615575 1.49285,0 4.35745,1.253279 6.36569,2.78505 2.00826,1.531781 4.278566,2.877112 5.045116,2.989616 0.76653,0.112497 1.6582,0.469042 1.98146,0.792292 0.7257,0.725682 1.18507,0.719323 4.07992,-0.05653 z M 97.517134,57.184233 c -1.50075,-1.967544 -3.01898,-3.562723 -3.37387,-3.544846 -1.18343,0.05961 -4.22261,2.734695 -4.22261,3.716746 0,0.779834 4.49826,2.319 9.50645,3.252819 0.45024,0.08393 -0.40927,-1.457173 -1.90997,-3.424719 z m -4.53019,-4.599454 c 0,-0.441866 -0.68991,-1.068139 -1.53315,-1.391718 -1.03765,-0.398188 -1.53314,0.05158 -1.53314,1.391718 0,1.340118 0.49549,1.789908 1.53314,1.391719 0.84324,-0.323579 1.53315,-0.949852 1.53315,-1.391719 z"
     id="path817"
     inkscape:connector-curvature="0" />
</svg>
