<?xml version="1.0" encoding="UTF-8" standalone="no"?>
<svg
   xmlns:dc="http://purl.org/dc/elements/1.1/"
   xmlns:cc="http://creativecommons.org/ns#"
   xmlns:rdf="http://www.w3.org/1999/02/22-rdf-syntax-ns#"
   xmlns:svg="http://www.w3.org/2000/svg"
   xmlns="http://www.w3.org/2000/svg"
   xmlns:sodipodi="http://sodipodi.sourceforge.net/DTD/sodipodi-0.dtd"
   xmlns:inkscape="http://www.inkscape.org/namespaces/inkscape"
   height="290.01669"
   width="256.21725"
   version="1.1"
   x="0px"
   y="0px"
   viewBox="0 0 497.58673 366.07936"
   style="fill:#000000"
   xml:space="preserve"
   id="svg82"
   sodipodi:docname="protest.svg"
   inkscape:version="0.92.5 (0.92.5+68)"><metadata
     id="metadata88"><rdf:RDF><cc:Work
         rdf:about=""><dc:format>image/svg+xml</dc:format><dc:type
           rdf:resource="http://purl.org/dc/dcmitype/StillImage" /><dc:title></dc:title></cc:Work></rdf:RDF></metadata><defs
     id="defs86" /><sodipodi:namedview
     pagecolor="#ffffff"
     bordercolor="#666666"
     borderopacity="1"
     objecttolerance="10"
     gridtolerance="10"
     guidetolerance="10"
     inkscape:pageopacity="0"
     inkscape:pageshadow="2"
     inkscape:window-width="1920"
     inkscape:window-height="1056"
     id="namedview84"
     showgrid="false"
     fit-margin-top="0"
     fit-margin-left="0"
     fit-margin-right="0"
     fit-margin-bottom="0"
     inkscape:zoom="1.1125147"
     inkscape:cx="13.522629"
     inkscape:cy="185.9593"
     inkscape:window-x="0"
     inkscape:window-y="24"
     inkscape:window-maximized="1"
     inkscape:current-layer="svg82" /><path
     inkscape:connector-curvature="0"
     id="path2"
     d="m 469.99998,113.43654 9.26461,-5.53285 -6.4535,-10.809461 c 0.35754,-2.38952 0.7106,-4.79394 1.03238,-7.24454 0.85808,-6.5265 -3.73623,-12.51073 -10.25975,-13.3703 -1.04728,-0.13855 -2.07817,-0.12216 -3.08076,0.007 L 440.15329,42.403314 497.58674,6.6081482 444.86381,-81.793756 316.59829,4.6342602 373.6906,83.825179 428.13864,49.892173 450.20001,86.832939 c -4.32021,32.832151 -12.13532,59.398451 -20.70423,76.910201 -4.25019,8.75662 -8.73129,15.20415 -12.45859,18.90166 -1.85322,1.8562 -3.48596,3.01223 -4.63454,3.5962 -0.78211,0.39776 -1.29159,0.54226 -1.63572,0.60185 h -57.54072 c -0.15344,0 -0.30539,0.0179 -0.46032,0.0238 -2.67406,0.0238 -7.18645,0.58844 -12.32451,3.18057 -8.01325,3.97161 -16.65218,12.66417 -22.69749,28.06647 -6.11533,15.46186 -10.224,37.8182 -10.24783,71.57393 0.003,8.72682 0.28603,18.2149 0.89085,28.54467 0.37244,6.33432 5.6267,11.21913 11.89101,11.21913 0.23537,0 0.46777,-0.006 0.70762,-0.0209 6.56969,-0.3903 11.58263,-6.02743 11.19977,-12.59713 -0.58547,-9.90817 -0.84915,-18.93294 -0.84915,-27.1473 -0.0521,-36.08715 5.21107,-56.3534 10.37893,-66.92748 v 223.47696 c 0,10.17484 8.24862,18.4175 18.4175,18.4175 10.17186,0 18.42048,-8.24266 18.42048,-18.4175 V 311.75648 h 6.90488 v 134.47917 c 0,10.17484 8.24862,18.4175 18.4175,18.4175 10.17186,0 18.42048,-8.24266 18.42048,-18.4175 V 207.92547 c 0.33817,-0.1594 0.6808,-0.3188 1.01301,-0.49012 6.82295,-3.55896 12.34239,-9.10224 17.44024,-16.02798 7.58867,-10.42958 14.19263,-24.30192 19.84913,-41.36972 3.60812,-10.9346 6.78272,-23.19059 9.40167,-36.60111 z M 377.28978,72.421369 328.59953,7.2994312 440.48103,-67.382086 482.68798,4.1248222 Z m -0.95045,126.611911 h 5.66246 5.65947 l 2.83048,11.17296 -0.43053,0.67932 c -2.33291,1.94558 -5.19021,2.91986 -8.0624,2.92284 -2.8722,-0.003 -5.72651,-0.97577 -8.05645,-2.91688 l -0.43351,-0.68528 z m 5.66097,96.08742 -14.15241,-17.87673 8.1503,-60.06729 c 1.93217,0.724 3.96565,1.1024 5.99913,1.10091 h 0.003 c 0,0 0.006,0 0.009,0 2.03049,0 4.0595,-0.3784 5.9887,-1.1024 l 8.15626,60.06878 z"
     style="stroke-width:1.48972726" /><circle
     id="circle4"
     r="33.518864"
     cy="144.83405"
     cx="382.00031"
     style="stroke-width:1.48972726" /><path
     inkscape:connector-curvature="0"
     id="path12"
     d="m 261.56303,189.95936 c -5.12317,-2.58319 -9.62215,-3.15226 -12.30217,-3.18057 -0.15642,-0.006 -0.31433,-0.0238 -0.47075,-0.0238 H 191.2345 c -0.89384,0 -1.7549,0.11024 -2.58915,0.30242 -1.5806,0.25772 -2.89454,0.67186 -4.14293,1.09197 -3.3638,1.19923 -6.27622,2.74109 -9.34655,4.38426 -2.27034,1.22754 -4.58836,2.52062 -6.86913,3.75412 l -15.1401,-28.27502 c 0.23538,-1.38098 0.49161,-2.80218 0.77019,-4.26658 1.2186,-6.4684 -3.03308,-12.69993 -9.50148,-13.92001 -0.36349,-0.0685 -0.72549,-0.11322 -1.0875,-0.14898 l -5.06209,-9.4553 59.04235,-33.07492 -48.54126,-90.764652 -132.158185,80.349931 53.333733,81.768151 55.972032,-31.35727 5.27363,9.84709 c -0.3039,0.7404 -0.53928,1.52102 -0.69421,2.34037 -2.4208,12.84889 -3.55747,23.1727 -3.56343,31.758 0.0626,10.13014 1.41822,18.13445 5.86506,24.98571 2.22267,3.36976 5.40771,6.23302 8.97859,7.95514 3.55449,1.73553 7.26539,2.35824 10.60536,2.35824 0.0164,0 0.0313,0 0.0492,0 5.36153,-0.0387 9.99011,-1.38545 14.30585,-3.0167 l 12.98596,24.24978 v 198.52851 c 0,10.17483 8.2501,18.41749 18.41898,18.41749 10.17186,0 18.42048,-8.24266 18.42048,-18.41749 V 311.66859 h 6.90488 v 134.48066 c 0,10.17483 8.24862,18.41749 18.4175,18.41749 10.17186,0 18.42048,-8.24266 18.42048,-18.41749 V 222.75124 c 0.88192,1.8115 1.77278,3.88818 2.65022,6.31048 4.19806,11.63626 7.72871,30.73307 7.71679,60.53954 0,8.21882 -0.26517,17.2421 -0.8402,27.15028 -0.38435,6.57267 4.63156,12.2098 11.20423,12.59117 0.23538,0.0134 0.47076,0.0209 0.70465,0.0209 6.26728,0 11.51857,-4.89227 11.88802,-11.22659 0.59887,-10.32679 0.87596,-19.81188 0.87894,-28.53572 -0.0611,-44.96444 -7.24157,-69.84735 -17.03354,-84.81018 -4.89227,-7.42778 -10.61878,-12.19043 -15.9088,-14.83172 z M 74.070432,167.27528 28.47435,99.951529 143.71816,30.57344 182.54194,103.97379 Z M 214.3491,198.94837 h 5.66246 5.65947 l 2.83048,11.17296 -0.43053,0.67931 c -2.33291,1.94559 -5.19021,2.91987 -8.0624,2.92285 -2.8722,-0.003 -5.72651,-0.97577 -8.05645,-2.91689 l -0.43351,-0.68527 z m -61.89667,3.60812 c -0.0164,-0.0283 -0.0298,-0.0566 -0.0462,-0.0894 -0.51693,-0.92513 -1.38694,-3.83456 -1.59252,-8.8311 l 4.50941,8.42142 c -1.31543,0.35903 -2.34334,0.53184 -2.87071,0.49906 z m 67.55913,92.47929 -14.15241,-17.87672 8.1503,-60.0673 c 1.93217,0.72401 3.96565,1.1024 5.99913,1.10091 h 0.003 c 0,0 0.006,0 0.009,0 2.0305,0 4.05951,-0.37839 5.98871,-1.1024 l 8.15626,60.06879 z"
     style="stroke-width:1.48972726" /><circle
     id="circle14"
     r="33.518864"
     cy="144.74911"
     cx="220.01155"
     style="stroke-width:1.48972726" /><path
     inkscape:connector-curvature="0"
     id="path20"
     d="m 209.04567,72.334959 c 6.24047,-3.67813 12.2113,-8.857914 11.56327,-16.737082 -0.27411,-3.311663 -1.91728,-6.764851 -4.15187,-9.22588 -0.78211,-0.862553 -4.83864,-1.084522 -3.74518,0.122157 1.75788,1.939625 2.88114,4.409593 3.52917,6.919783 2.02156,7.798722 -4.53324,13.726347 -10.56515,17.277862 -1.47781,0.87 2.36569,2.23459 3.36976,1.64316 z"
     style="stroke-width:1.48972726" /><path
     inkscape:connector-curvature="0"
     id="path22"
     d="m 247.3555,56.475327 c 2.25247,-0.902775 -1.29159,-2.651715 -2.59213,-2.1318 -5.98274,2.398461 -12.61054,3.614078 -15.9073,-3.091184 -1.14411,-2.328444 -1.78321,-5.19021 -1.78023,-7.792763 0.003,-1.610395 -4.12058,-2.246509 -4.12058,-0.87298 -0.006,3.87776 1.09644,7.880657 3.36082,11.041858 4.88631,6.812523 14.30138,5.547744 21.03942,2.846869 z"
     style="stroke-width:1.48972726" /><path
     inkscape:connector-curvature="0"
     id="path24"
     d="m 248.22252,61.684903 c -3.25058,1.156028 -6.08404,3.350397 -8.28139,5.969336 -4.72542,5.63415 -3.00031,13.20941 0.0119,19.17577 0.87298,1.72659 3.51128,2.40591 2.22565,-0.14152 -4.5392,-8.992 -1.13219,-18.11658 8.38567,-21.501237 1.1322,-0.402227 -0.90426,-4.013325 -2.34185,-3.502349 z"
     style="stroke-width:1.48972726" /><path
     inkscape:connector-curvature="0"
     id="path26"
     d="m 208.22483,79.259219 c -2.41484,1.02493 0.64357,3.58279 2.53999,2.77983 5.17084,-2.19288 12.37516,-4.30382 15.84921,1.57017 1.17837,1.99474 1.74,4.52877 1.74298,6.84083 0.006,2.05135 4.15783,2.15712 4.15187,-0.15642 -0.009,-3.4949 -1.29755,-7.06131 -3.48,-9.76517 -5.1336,-6.36411 -14.46675,-3.95671 -20.80405,-1.26924 z"
     style="stroke-width:1.48972726" /><path
     inkscape:connector-curvature="0"
     id="path36"
     d="m 286.81864,-48.210786 c 7.27434,1.13815 15.30695,0.91767 19.8819,-5.69076 1.92324,-2.77834 2.86028,-6.55182 2.69194,-9.92754 -0.0581,-1.18284 -3.10459,-3.97459 -3.01968,-2.321 0.1311,2.65768 -0.58248,5.3228 -1.69084,7.7153 -3.44574,7.43225 -12.42134,7.85831 -19.44839,6.75889 -1.72957,-0.26964 0.41266,3.28187 1.58507,3.46511 z"
     style="stroke-width:1.48972726" /><path
     inkscape:connector-curvature="0"
     id="path38"
     d="m 326.49157,-39.300726 c -6.24643,-1.97389 -12.24109,-5.29598 -10.50407,-12.69099 0.60185,-2.56829 1.94708,-5.23043 3.62898,-7.27285 1.04132,-1.26477 -1.78916,-4.423 -2.67704,-3.34294 -2.50572,3.04053 -4.22189,6.90041 -4.4811,10.84372 -0.55865,8.50336 7.65571,13.58184 14.69616,15.81048 2.34781,0.74188 0.69272,-2.91838 -0.66293,-3.34742 z"
     style="stroke-width:1.48972726" /><path
     inkscape:connector-curvature="0"
     id="path40"
     d="m 324.04991,-27.038786 c 1.15156,0.41415 1.88003,-3.73772 0.42159,-4.26211 -3.29975,-1.1888 -6.94213,-1.29159 -10.35807,-0.6525 -7.34734,1.378 -10.87948,8.44229 -12.36325,15.07455 -0.42755,1.91728 1.20817,4.15485 1.8413,1.32586 2.23608,-9.99607 10.80201,-14.9658 20.45843,-11.4858 z"
     style="stroke-width:1.48972726" /><path
     inkscape:connector-curvature="0"
     id="path42"
     d="m 281.90701,-39.475026 c 5.47922,1.61338 12.5003,4.60326 11.43813,11.45749 -0.35754,2.32845 -1.55379,4.68073 -3.04351,6.49968 -1.31543,1.61487 1.87705,4.37682 3.36678,2.55637 2.24949,-2.75301 3.53512,-6.38646 3.5679,-9.9186 0.07,-8.3097 -8.81621,-12.4422 -15.5319,-14.41907 -2.55935,-0.7538 -1.80853,3.22973 0.2026,3.82413 z"
     style="stroke-width:1.48972726" /><path
     inkscape:connector-curvature="0"
     id="path44"
     d="m 13.445973,87.324599 c -4.6494378,2.47593 -6.1630008,6.20769 -6.1138398,9.1797 0.01937,3.23271 1.462912,5.574561 1.52697,5.696721 0.280069,0.46479 0.771679,0.71953 1.2766958,0.71953 0.262192,0 0.528854,-0.0685 0.770189,-0.21601 0.703152,-0.42606 0.9281,-1.34075 0.502038,-2.04688 0,0 -0.0432,-0.07 -0.148972,-0.27709 -0.309864,-0.613771 -0.956405,-2.166061 -0.945977,-3.879251 0.04916,-2.09754 0.738905,-4.42747 4.560055,-6.56821 0.719539,-0.39627 0.9862,-1.29755 0.589933,-2.01858 -0.388819,-0.71954 -1.296064,-0.9862 -2.017092,-0.58993 z"
     style="stroke-width:1.48972726" /><path
     inkscape:connector-curvature="0"
     id="path46"
     d="m 11.014738,84.519439 c 0.737415,-0.36647 1.036851,-1.2618 0.670378,-1.99772 -0.366473,-0.73444 -1.26031,-1.03387 -1.9977248,-0.6674 -7.572283,3.70197 -9.74579504,9.43891 -9.68620604,13.90065 0.01043,4.271041 1.71467604,7.424801 1.76830604,7.546951 0.27113,0.50204 0.785086,0.78807 1.318409,0.78807 0.235377,0 0.475223,-0.0566 0.698682,-0.17728 0.724007,-0.38584 1.001097,-1.28861 0.615257,-2.01411 l -0.003,-0.003 c 0,0 -0.06555,-0.12216 -0.198134,-0.42308 -0.402226,-0.90129 -1.226046,-3.132901 -1.220087,-5.719061 0.06108,-3.60514 1.364591,-7.85385 8.0340988,-11.23404 z"
     style="stroke-width:1.48972726" /><path
     inkscape:connector-curvature="0"
     id="path60"
     d="m 149.97352,6.0763652 c -3.12991,0.0149 -5.39877,1.354162 -5.5239,1.412261 -0.71209,0.411165 -0.95492,1.324368 -0.54077,2.036457 0.40967,0.7135798 1.32436,0.9564048 2.03645,0.5437508 0,0 0.0641,-0.04022 0.26517,-0.1370548 0.59292,-0.286028 2.09456,-0.884898 3.76305,-0.87745 2.12882,0.05214 4.50494,0.743374 6.62035,4.6941308 0.26815,0.509487 0.78509,0.802963 1.32437,0.802963 0.22942,0 0.46628,-0.05363 0.68527,-0.168339 0.72848,-0.379881 1.01451,-1.278186 0.63612,-2.008152 -2.44762,-4.8147988 -6.26877,-6.3551768 -9.26611,-6.2985668 z"
     style="stroke-width:1.48972726" /><path
     inkscape:connector-curvature="0"
     id="path62"
     d="m 163.43768,10.85541 c 0.21303,0 0.42755,-0.04618 0.63462,-0.143014 0.74338,-0.351576 1.06069,-1.2394528 0.7106,-1.9828268 -3.6394,-7.83745504 -9.51489,-10.036293 -14.02131,-9.970745 -4.11165,0.0089 -7.14622,1.56868296 -7.2654,1.62082396 -0.73294,0.373921 -1.02642,1.27073704 -0.6525,2.00517304 0.37392,0.734435 1.27074,1.024932 2.00368,0.6525 v -0.003 c 0,0 0.11918,-0.05959 0.40521,-0.180257 0.86553,-0.367963 3.01074,-1.120275 5.50901,-1.117296 3.66026,0.06257 8.00132,1.36906 11.32789,8.2635168 0.25027,0.537792 0.78806,0.855104 1.3482,0.855104 z"
     style="stroke-width:1.48972726" /><path
     inkscape:connector-curvature="0"
     id="path64"
     d="m 444.7059,-88.274016 c 2.13031,0.0536 4.50344,0.74635 6.62183,4.69711 0.26518,0.51097 0.78211,0.80147 1.32139,0.80147 0.2324,0 0.46778,-0.0551 0.68975,-0.16834 0.72996,-0.37988 1.01301,-1.27819 0.63462,-2.00964 -2.4506,-4.81331 -6.26728,-6.35518 -9.26759,-6.30006 -3.12843,0.0164 -5.39729,1.35714 -5.52242,1.41375 -0.7106,0.41117 -0.95492,1.32586 -0.53779,2.03944 0.40967,0.71209 1.32436,0.95342 2.03645,0.54077 h -0.003 c 0,0 0.067,-0.0402 0.26517,-0.13557 0.58994,-0.28751 2.09158,-0.88489 3.76157,-0.87893 z"
     style="stroke-width:1.48972726" /><path
     inkscape:connector-curvature="0"
     id="path66"
     d="m 458.16856,-86.474426 c 0.21601,0 0.43053,-0.0447 0.63463,-0.14302 0.74486,-0.35008 1.06515,-1.23647 0.71357,-1.98134 -3.64238,-7.83744 -9.51786,-10.03628 -14.02429,-9.97371 -4.11165,0.0134 -7.14622,1.57315 -7.26242,1.6238 -0.73294,0.37392 -1.02493,1.26925 -0.6525,2.00666 0.37243,0.73145 1.26925,1.02344 2.00219,0.6525 v -0.004 c 0,0 0.11918,-0.0596 0.4067,-0.18026 0.86404,-0.36647 3.00925,-1.12027 5.50454,-1.1173 3.66026,0.0641 8.00133,1.37055 11.32938,8.26352 0.25474,0.53779 0.78955,0.85362 1.3482,0.85362 z"
     style="stroke-width:1.48972726" /><path
     inkscape:connector-curvature="0"
     id="path72"
     d="m 240.62938,6.7437632 c -0.80296,-0.180257 -1.59699,0.32774 -1.77724,1.130703 -0.25624,1.130702 -0.36648,2.1898988 -0.36648,3.1656698 -0.0268,4.192092 2.21076,6.895947 4.33213,8.282883 2.12137,1.416731 4.12804,1.760858 4.2487,1.781714 0.0879,0.0149 0.1743,0.02235 0.25922,0.02235 0.70762,0 1.33479,-0.509487 1.46291,-1.230515 0.14003,-0.810411 -0.40223,-1.58358 -1.21115,-1.722124 v -0.003 c -0.006,0 -0.33221,-0.05363 -0.92512,-0.256233 -1.86216,-0.688254 -5.18425,-2.273324 -5.19021,-6.873601 0.003,-0.747843 0.0879,-1.5835798 0.29645,-2.5161498 0.18026,-0.807432 -0.32922,-1.601456 -1.12921,-1.781713 z"
     style="stroke-width:1.48972726" /><path
     inkscape:connector-curvature="0"
     id="path74"
     d="m 234.07607,6.0599782 c -0.797,-0.211542 -1.6089,0.266661 -1.81896,1.063665 -0.5214,1.975378 -0.75082,3.7958248 -0.75082,5.4538908 -0.0238,5.879954 2.98839,9.689186 5.89485,11.795661 2.91242,2.134779 5.72353,2.772382 5.83973,2.805156 0.11024,0.02533 0.22346,0.03724 0.33519,0.03724 0.67783,0 1.2916,-0.467774 1.44951,-1.156028 0.18621,-0.804453 -0.31732,-1.601457 -1.1173,-1.786183 -0.003,0 -0.53183,-0.117688 -1.43759,-0.475223 -2.76642,-1.150069 -7.98344,-4.04014 -7.98344,-11.219136 0,-1.383956 0.18919,-2.9422108 0.6525,-4.7000888 0.20856,-0.798494 -0.26815,-1.611885 -1.06367,-1.818957 z"
     style="stroke-width:1.48972726" /><path
     inkscape:connector-curvature="0"
     id="path76"
     d="m 135.19394,231.25758 c 0,0 -0.10726,0.0119 -0.37988,0.0119 -0.82084,0.003 -2.77834,-0.15493 -4.41704,-1.16795 -1.62231,-1.03238 -3.10459,-2.73812 -3.3206,-6.66802 -0.0372,-0.82382 -0.73295,-1.45993 -1.55379,-1.4212 -0.82531,0.0372 -1.45844,0.73444 -1.41971,1.55826 0.17728,4.712 2.32994,7.63634 4.74031,9.07095 2.39102,1.45248 4.84758,1.59996 5.97232,1.60592 0.37094,0 0.59738,-0.0194 0.63313,-0.0223 0.82084,-0.07 1.43014,-0.79105 1.35566,-1.61189 -0.07,-0.81786 -0.79254,-1.42567 -1.6104,-1.35565 z"
     style="stroke-width:1.48972726" /><path
     inkscape:connector-curvature="0"
     id="path78"
     d="m 133.27666,238.10139 v -0.003 c -0.003,0 -0.0536,0 -0.15344,0 -0.62271,0.006 -3.88968,-0.11769 -6.83189,-1.84727 -2.92135,-1.75638 -5.68182,-4.85353 -5.77269,-11.73011 -0.007,-0.82382 -0.67932,-1.48377 -1.50463,-1.4793 -0.82084,0.006 -1.48227,0.67783 -1.47632,1.50314 0.0104,7.7287 3.53066,12.15915 7.24902,14.28052 3.70346,2.14521 7.42778,2.24502 8.33651,2.25396 0.0998,0 0.15046,0 0.15344,0 0.82084,0 1.48675,-0.6674 1.48675,-1.48973 0,-0.82233 -0.6674,-1.48823 -1.48675,-1.48823 z"
     style="stroke-width:1.48972726" /></svg>