<?xml version="1.0" encoding="UTF-8" standalone="no"?>
<!-- Created with Inkscape (http://www.inkscape.org/) -->

<svg
   xmlns:dc="http://purl.org/dc/elements/1.1/"
   xmlns:cc="http://creativecommons.org/ns#"
   xmlns:rdf="http://www.w3.org/1999/02/22-rdf-syntax-ns#"
   xmlns:svg="http://www.w3.org/2000/svg"
   xmlns="http://www.w3.org/2000/svg"
   xmlns:sodipodi="http://sodipodi.sourceforge.net/DTD/sodipodi-0.dtd"
   xmlns:inkscape="http://www.inkscape.org/namespaces/inkscape"
   version="1.1"
   id="svg2"
   width="400"
   height="400"
   viewBox="0 0 400 400"
   sodipodi:docname="theatre-drama-art.svg"
   inkscape:version="0.92.5 (0.92.5+68)">
  <metadata
     id="metadata8">
    <rdf:RDF>
      <cc:Work
         rdf:about="">
        <dc:format>image/svg+xml</dc:format>
        <dc:type
           rdf:resource="http://purl.org/dc/dcmitype/StillImage" />
        <dc:title></dc:title>
      </cc:Work>
    </rdf:RDF>
  </metadata>
  <defs
     id="defs6" />
  <sodipodi:namedview
     pagecolor="#ffffff"
     bordercolor="#666666"
     borderopacity="1"
     objecttolerance="10"
     gridtolerance="10"
     guidetolerance="10"
     inkscape:pageopacity="0"
     inkscape:pageshadow="2"
     inkscape:window-width="1920"
     inkscape:window-height="1056"
     id="namedview4"
     showgrid="false"
     fit-margin-top="0"
     fit-margin-left="0"
     fit-margin-right="0"
     fit-margin-bottom="0"
     inkscape:zoom="0.34570311"
     inkscape:cx="587.83173"
     inkscape:cy="660.46566"
     inkscape:window-x="0"
     inkscape:window-y="24"
     inkscape:window-maximized="1"
     inkscape:current-layer="svg2" />
  <path
     style="fill:#000000;stroke-width:0.78125"
     d="m 0,325.39062 c 0,-48.11408 0.2714,-74.60937 0.7642,-74.60937 0.874,0 19.6509,2.95133 22.8095,3.58517 1.9684,0.39499 2.2274,0.9931 4.4738,10.33111 4.6531,19.34256 7.6433,36.07847 16.4974,92.33372 2.1979,13.96484 4.675,28.90625 5.5045,33.20312 0.8296,4.29688 1.5094,8.25196 1.5107,8.78907 0,0.76157 -5.6735,0.97656 -25.7789,0.97656 H 0 Z m 348.4375,73.48858 c 0,-0.61644 0.5012,-3.51683 1.1137,-6.44531 0.6124,-2.92848 3.7865,-22.19951 7.0534,-42.82451 6.3956,-40.37727 9.5973,-58.88211 12.6386,-73.04688 2.0418,-9.51009 4.9483,-21.32443 5.3435,-21.72121 0.2655,-0.26648 22.918,-4.01304 24.4367,-4.04165 0.7746,-0.0146 0.9766,15.41451 0.9766,74.59098 V 400 h -25.7812 c -21.8737,0 -25.7813,-0.16987 -25.7813,-1.1208 z M 238.2813,340.68533 c -5.6823,-0.59635 -10.2227,-3.36248 -16.5786,-10.10012 -23.2184,-24.61275 -26.3818,-69.78421 -9.063,-129.41334 1.7472,-6.01562 3.3194,-11.09395 3.4938,-11.28518 0.1744,-0.19123 2.6802,1.95929 5.5684,4.77893 18.9127,18.46377 47.6843,31.78116 78.2981,36.24157 6.8109,0.99235 12.1028,1.20831 21.875,0.89274 7.0898,-0.22896 13.671,-0.66036 14.6249,-0.95868 1.7149,-0.53637 1.7077,-0.46967 -0.6479,5.98786 -9.3607,25.66127 -20.7649,48.20165 -33.193,65.60564 -7.0179,9.8278 -19.7266,22.33013 -28.3777,27.91712 -7.9803,5.15365 -17.8387,9.14802 -24.4237,9.89578 -2.2849,0.25947 -4.8576,0.56557 -5.717,0.6802 -0.8594,0.11464 -3.4961,0.005 -5.8593,-0.24252 z m 40.2152,-27.59939 c -1.0041,-4.77553 -5.0981,-12.22159 -9.1812,-16.69844 -8.3395,-9.1438 -18.2004,-13.58212 -30.1398,-13.56573 -9.915,0.0136 -19.0885,3.00471 -25.3347,8.26055 -2.1053,1.77148 -2.1943,2.01634 -0.8669,2.38554 0.8135,0.22629 15.7175,5.27071 33.1198,11.20982 17.4024,5.93911 31.9323,10.8319 32.2887,10.87285 0.3564,0.041 0.4078,-1.06811 0.1141,-2.46459 z m 22.2847,-30.52227 c 0,-2.18642 -2.5584,-9.49642 -4.2614,-12.17571 -2.3986,-3.77376 -4.0752,-5.17274 -8.5957,-7.17241 -4.8646,-2.15179 -10.5094,-1.70214 -15.9748,1.27254 -3.6925,2.00972 -8.5344,6.26498 -7.8298,6.88118 0.3831,0.33511 35.1877,12.06932 36.0758,12.1628 0.3223,0.0339 0.5859,-0.40185 0.5859,-0.9684 z m -52.0689,-19.47773 c -0.6802,-3.69504 -3.2147,-9.26653 -5.1958,-11.42146 -3.8049,-4.13894 -10.6611,-5.781 -16.2515,-3.89225 -3.1942,1.07918 -10.3477,6.11979 -9.6694,6.81345 0.471,0.48179 29.9004,10.91669 31.0177,10.99806 0.3115,0.0227 0.3561,-1.10132 0.099,-2.4978 z m -99.8842,30.92982 C 123.0337,288.50027 98.7639,264.94229 79.3366,226.5625 74.0518,216.12207 64.1607,192.5196 62.8341,187.1836 l -0.5643,-2.26953 4.4484,0.52282 c 15.4505,1.81589 28.0867,1.25943 43.8287,-1.9301 25.2044,-5.10675 51.3753,-18.15125 68.4366,-34.11118 l 5.1108,-4.78095 1.6623,5.23173 c 2.6689,8.40005 6.2555,22.46698 8.3054,32.57548 9.8851,48.74347 4.0088,85.43944 -16.751,104.60543 -8.879,8.19727 -15.3753,9.79119 -28.4829,6.98846 z m 8.2149,-28.55695 c 9.6243,-3.49883 16.8928,-9.52458 21.9453,-18.19319 2.2655,-3.88688 4.9077,-11.28631 4.261,-11.93297 -0.1865,-0.1865 -15.324,4.65583 -33.6388,10.76074 -31.8358,10.61184 -33.2434,11.16221 -32.0162,12.51815 2.0027,2.21312 11.4486,6.89058 16.5033,8.17226 6.4049,1.62403 16.4251,1.04542 22.9454,-1.32499 z m -39.0743,-33.86323 c 8.8087,-2.88573 16.1658,-5.37815 16.3493,-5.53871 0.7562,-0.66159 -4.4232,-5.10934 -8.0605,-6.9219 -6.8802,-3.42854 -15.1641,-2.10241 -20.1609,3.22745 -3.6866,3.9323 -7.8027,15.64214 -5.2088,14.8183 0.5859,-0.18609 8.2724,-2.6994 17.0809,-5.58514 z m 63.1339,-24.32575 c -5.2897,-5.45755 -14.9604,-7.64787 -20.6726,-4.68212 -3.6104,1.87451 -7.6687,7.01037 -9.1405,11.56768 -2.4248,7.50801 -3.2181,7.44529 15.4883,1.22465 l 16.7778,-5.57932 z M 18.75,248.01547 C 12.0898,247.01976 5.1465,245.98272 3.3203,245.71093 L 0,245.21675 v -19.87399 c 0,-15.3765 0.221,-19.87481 0.9765,-19.87752 0.5372,-0.002 8.8868,1.08458 18.5547,2.41445 13.7575,1.89242 17.9013,2.73047 19.0649,3.85572 1.416,1.36936 1.4532,2.24257 0.7812,18.35789 -0.9355,22.4372 0.6073,21.09681 -20.6273,17.92217 z m 344.4225,0.49125 c -1.7913,-1.45033 -1.8647,-1.97993 -2.5499,-18.41342 -0.6719,-16.11532 -0.6348,-16.98853 0.7812,-18.35789 1.1637,-1.12525 5.3075,-1.9633 19.0649,-3.85572 9.668,-1.32987 18.0176,-2.41638 18.5547,-2.41445 0.7557,0.002 0.9766,4.51059 0.9766,19.92538 0,10.95703 -0.1341,19.92188 -0.298,19.92188 -0.1639,0 -7.5884,1.05468 -16.4989,2.34375 C 374.2927,248.94531 366.5555,250 366.0095,250 c -0.5459,0 -1.8226,-0.67198 -2.837,-1.49328 z M 15.625,202.30256 C 7.6758,201.07884 0.9082,200.06015 0.5859,200.03881 0.2637,200.01751 0,155 0,99.99999 V 0 h 71.0937 c 39.1016,0 71.0938,0.10983 71.0938,0.24407 0,0.76139 -5.0563,14.89647 -8.5489,23.89873 -22.1089,56.98666 -55.8769,120.28302 -84.8571,159.06032 -7.0862,9.48187 -17.3068,21.52941 -18.1585,21.40438 -0.2997,-0.044 -7.0488,-1.08123 -14.998,-2.30494 z m 347.6148,-4.0566 C 336.1155,167.00233 302.141,108.37978 276.1292,47.9376 268.653,30.56579 257.8125,2.33879 257.8125,0.24407 257.8125,0.10983 289.8047,0 328.9062,0 H 400 v 99.9198 99.9198 l -4.8828,0.81813 c -2.6856,0.44997 -8.9258,1.37436 -13.8672,2.0542 -4.9414,0.67983 -9.7554,1.40415 -10.6979,1.60958 -1.3756,0.29986 -2.8178,-0.89853 -7.3123,-6.07555 z"
     id="path817"
     inkscape:connector-curvature="0" />
</svg>
