<?xml version="1.0" encoding="UTF-8" standalone="no"?>
<svg
   xmlns:dc="http://purl.org/dc/elements/1.1/"
   xmlns:cc="http://creativecommons.org/ns#"
   xmlns:rdf="http://www.w3.org/1999/02/22-rdf-syntax-ns#"
   xmlns:svg="http://www.w3.org/2000/svg"
   xmlns="http://www.w3.org/2000/svg"
   xmlns:sodipodi="http://sodipodi.sourceforge.net/DTD/sodipodi-0.dtd"
   xmlns:inkscape="http://www.inkscape.org/namespaces/inkscape"
   height="383.36823"
   width="530.91327"
   version="1.1"
   x="0px"
   y="0px"
   viewBox="0 0 176.97109 127.78941"
   enable-background="new 0 0 100 100"
   xml:space="preserve"
   id="svg14"
   sodipodi:docname="bribery.svg"
   style="fill:#000000"
   inkscape:version="0.92.5 (0.92.5+68)"><metadata
     id="metadata20"><rdf:RDF><cc:Work
         rdf:about=""><dc:format>image/svg+xml</dc:format><dc:type
           rdf:resource="http://purl.org/dc/dcmitype/StillImage" /><dc:title></dc:title></cc:Work></rdf:RDF></metadata><defs
     id="defs18" /><sodipodi:namedview
     pagecolor="#ffffff"
     bordercolor="#666666"
     borderopacity="1"
     objecttolerance="10"
     gridtolerance="10"
     guidetolerance="10"
     inkscape:pageopacity="0"
     inkscape:pageshadow="2"
     inkscape:window-width="1920"
     inkscape:window-height="1056"
     id="namedview16"
     showgrid="false"
     fit-margin-top="0"
     fit-margin-left="0"
     fit-margin-right="0"
     fit-margin-bottom="0"
     inkscape:zoom="0.55625733"
     inkscape:cx="-3.0894968"
     inkscape:cy="268.24188"
     inkscape:window-x="0"
     inkscape:window-y="24"
     inkscape:window-maximized="1"
     inkscape:current-layer="svg14" /><ellipse
     transform="rotate(-99.997359)"
     cx="-40.776409"
     cy="147.48662"
     rx="14.604883"
     ry="12.777447"
     id="ellipse2"
     style="clip-rule:evenodd;fill-rule:evenodd;stroke-width:1.8256104" /><path
     d="m 127.91369,86.41629 c -4.429,4.427176 -6.87901,17.2669 -12.3468,33.34348 -1.15563,3.40482 0.61524,6.90275 3.95433,7.81192 3.3391,0.90917 6.98307,-1.11182 8.1387,-4.51846 4.70833,-13.84565 5.52804,-21.62288 8.64441,-24.448971 2.95389,-2.75489 15.6074,-2.824264 21.64845,-2.824264 7.53441,0 13.87668,-5.688693 16.64435,-12.691846 1.26152,-3.19487 1.97169,-6.784077 2.24371,-10.53029 0.85988,-11.901344 -2.67821,-28.220736 -6.47554,-35.735069 -2.64718,-5.223155 -9.20488,-7.003153 -14.64528,-3.979894 -2.80966,1.562747 -4.5641,4.397966 -6.16701,7.826517 -6.37515,13.637527 -15.48692,26.961045 -29.38551,30.055504 -2.92468,0.642625 -4.70285,3.552695 -3.97442,6.501103 0.73026,2.946582 3.6951,4.816037 6.6216,4.171586 12.20987,-2.720203 24.12401,-12.576831 31.03953,-22.933684 0.96029,5.407544 1.31264,11.220381 0.95664,15.408398 -0.44363,5.265145 -20.449,6.095811 -26.89716,12.54397 z"
     id="path4"
     inkscape:connector-curvature="0"
     style="clip-rule:evenodd;fill-rule:evenodd;stroke-width:1.82563961" /><ellipse
     transform="rotate(-75.000671)"
     cx="-6.2191048"
     cy="35.680046"
     rx="14.60468"
     ry="12.779096"
     id="ellipse6"
     style="clip-rule:evenodd;fill-rule:evenodd;stroke-width:1.82558501" /><path
     d="m 45.593391,84.59065 c 5.044241,5.290703 6.906393,19.09254 10.250965,35.16912 0.706522,3.40482 -1.526235,6.90275 -4.983996,7.81192 -3.461412,0.90917 -6.837019,-1.11182 -7.54354,-4.51846 -2.880859,-13.84565 -3.39569,-21.62288 -6.141452,-24.448971 -2.588757,-2.75489 -15.233139,-2.824264 -21.274181,-2.824264 -7.5362399,0 -13.1245229,-5.688693 -14.96841893,-12.691846 -0.84162,-3.19487 -1.077127,-6.784077 -0.852574,-10.53029 0.712,-11.901344 6.40251903,-28.220736 11.19117093,-35.735069 3.337269,-5.223155 10.130474,-7.003153 15.172893,-3.979894 7.989,4.794129 7.879461,31.820898 28.240817,38.227067 2.879033,0.896389 4.485596,3.957987 3.589207,6.83702 -0.896389,2.877208 -3.957987,4.487423 -6.835195,3.589208 -10.132296,-3.165659 -20.892616,-12.264647 -26.396921,-23.39192 -1.863979,5.695995 -2.895466,11.30436 -3.105414,15.7717 -0.251939,5.263319 16.768502,3.490623 23.656639,10.714679 z"
     id="path8"
     inkscape:connector-curvature="0"
     style="clip-rule:evenodd;fill-rule:evenodd;stroke-width:1.82563961" /><path
     d="m 66.610138,66.396571 c 4.022536,-4.1595 10.358552,0.306676 14.378112,-3.852822 l -2.14972,10.50147 c 12.410016,2.155674 36.16412,32.784711 8.059959,40.314691 C 58.797307,120.88988 64.052508,82.486716 73.720291,74.417824 Z m 8.131419,27.431256 c 0.259038,4.222025 6.258602,4.013603 9.268805,4.326236 5.112284,0.532964 -0.31561,5.752437 -3.221602,2.757117 -2.319433,-2.39089 -3.930234,-0.27095 -3.858776,0.92301 0.133979,2.18247 3.010203,3.04593 6.011473,2.6678 l 0.422798,1.57209 c 0.259039,0.97065 1.268395,1.55125 2.239043,1.29519 v 0 c 0.97065,-0.25904 1.551252,-1.26839 1.295191,-2.23904 l -0.449594,-1.68524 c 2.012756,-1.03019 3.504459,-2.74223 3.358564,-5.106325 -0.259037,-4.225004 -6.258601,-4.013604 -9.268805,-4.326236 -5.112283,-0.535941 0.312632,-5.752436 3.221602,-2.760097 2.319434,2.39387 3.930235,0.273926 3.855799,-0.920033 -0.125058,-2.042532 -2.638021,-2.926835 -5.410029,-2.724367 L 81.771319,85.988198 C 81.51228,85.01755 80.502924,84.436947 79.532276,84.693007 v 0 c -0.97065,0.262016 -1.551252,1.268394 -1.295191,2.24202 l 0.410888,1.533388 c -2.286682,0.982559 -4.067199,2.786893 -3.906416,5.359412 z"
     id="path10"
     inkscape:connector-curvature="0"
     style="clip-rule:evenodd;fill-rule:evenodd;stroke-width:2.97745109" /><path
     d="m 49.250331,59.216455 h 81.535119 c 1.81777,0 3.30646,-1.883131 3.30646,-4.184736 v 0 c 0,-2.301604 -1.48869,-4.184735 -3.30646,-4.184735 H 49.250331 c -1.819727,0 -3.306459,1.883131 -3.306459,4.184735 v 0 c 0,2.304395 1.486732,4.184736 3.306459,4.184736 z"
     id="path12"
     inkscape:connector-curvature="0"
     style="clip-rule:evenodd;fill-rule:evenodd;stroke-width:2.337672" /></svg>