<?xml version="1.0" encoding="UTF-8" standalone="no"?>
<!-- Created with Inkscape (http://www.inkscape.org/) -->

<svg
   xmlns:dc="http://purl.org/dc/elements/1.1/"
   xmlns:cc="http://creativecommons.org/ns#"
   xmlns:rdf="http://www.w3.org/1999/02/22-rdf-syntax-ns#"
   xmlns:svg="http://www.w3.org/2000/svg"
   xmlns="http://www.w3.org/2000/svg"
   xmlns:sodipodi="http://sodipodi.sourceforge.net/DTD/sodipodi-0.dtd"
   xmlns:inkscape="http://www.inkscape.org/namespaces/inkscape"
   version="1.1"
   id="svg2"
   width="565.78583"
   height="759.99994"
   viewBox="0 0 565.78583 759.99994"
   sodipodi:docname="government-icon.svg"
   inkscape:version="0.92.5 (0.92.5+68)">
  <metadata
     id="metadata8">
    <rdf:RDF>
      <cc:Work
         rdf:about="">
        <dc:format>image/svg+xml</dc:format>
        <dc:type
           rdf:resource="http://purl.org/dc/dcmitype/StillImage" />
        <dc:title></dc:title>
      </cc:Work>
    </rdf:RDF>
  </metadata>
  <defs
     id="defs6" />
  <sodipodi:namedview
     pagecolor="#ffffff"
     bordercolor="#666666"
     borderopacity="1"
     objecttolerance="10"
     gridtolerance="10"
     guidetolerance="10"
     inkscape:pageopacity="0"
     inkscape:pageshadow="2"
     inkscape:window-width="1920"
     inkscape:window-height="1056"
     id="namedview4"
     showgrid="false"
     inkscape:zoom="0.37048666"
     inkscape:cx="278.8219"
     inkscape:cy="165.31363"
     inkscape:window-x="0"
     inkscape:window-y="24"
     inkscape:window-maximized="1"
     inkscape:current-layer="svg2"
     fit-margin-top="0"
     fit-margin-left="0"
     fit-margin-right="0"
     fit-margin-bottom="0" />
  <path
     style="fill:#000000;stroke-width:1.55118573"
     d="m 281.83118,0.00103893 a 9.3080458,9.3080458 0 0 0 -9.1679,9.43739997 V 110.94417 h -9.4223 -11.5642 l -0.7756,11.63389 -0.7756,10.08271 -6.9802,2.0147 c -20.9929,6.06035 -32.7366,10.33539 -44.0362,16.03296 -52.8249,26.63631 -89.4565,76.00213 -99.827304,134.53205 -2.4982,14.09971 -2.7573,14.66717 -7.6651,16.71767 -10.7264,4.48189 -13.6894,17.95519 -5.7046,25.93995 l 4.0899,4.09005 H 282.25508 474.5113 l 4.53542,-4.53541 c 3.35185,-3.35185 4.53238,-6.00873 4.53238,-10.18573 0,-7.70757 -2.13127,-11.09224 -9.28585,-14.74232 -5.02418,-2.56312 -6.24671,-4.11596 -7.01988,-8.92538 -7.06906,-43.97632 -21.87676,-75.08022 -49.60158,-104.1809 -6.83451,-7.17375 -17.97411,-17.17739 -24.75531,-22.23164 -20.2397,-15.08577 -42.7849,-25.92586 -70.3579,-32.0326 l -7.168,-2.42372 -0.9151,-8.24372 c -1.2108,-13.54332 -0.5558,-12.51538 -1.2088,-13.54256 h -13.5515 -8.4378 V 9.4384389 a 9.3080458,9.3080458 0 0 0 -9.4462,-9.43739997 z M 282.70048,359.1339 c -209.717004,0 -214.166204,0.0601 -219.080504,3.03266 -9.2617,5.60206 -12.2628,17.59261 -6.6928,26.72768 4.2449,6.96171 8.3921,8.74805 22.5679,9.71916 l 12.4096,0.85133 0.415,41.53965 0.4121,41.5427 18.977804,-0.43629 18.9778,-0.43321 0.7755,-41.10644 0.7756,-41.10641 8.1438,-0.4696 8.1436,-0.46961 0.022,40.02483 c 0.022,22.01325 0.5928,40.92055 1.2874,42.01533 0.9394,1.48014 6.0032,1.87786 19.7535,1.55119 l 18.4899,-0.43929 0.4152,-41.49422 0.4119,-41.49424 h 8.4801 8.4831 l 0.4119,41.49424 0.4119,41.49422 18.4932,0.43929 c 13.7503,0.32667 18.8143,-0.0709 19.7535,-1.55119 0.6946,-1.09478 1.272,-20.00208 1.2876,-42.01533 l 0.022,-40.02483 8.1438,0.46961 8.1436,0.4696 0.4152,41.53965 0.412,41.5427 18.9777,-0.43629 18.9748,-0.43321 0.7755,-41.10644 0.7758,-41.10641 8.1436,-0.4696 8.1439,-0.46961 0.024,40.02483 c 0.022,22.01325 0.5928,40.92055 1.2874,42.01533 0.9392,1.48014 6.0032,1.87786 19.7535,1.55119 l 18.4899,-0.43929 0.4122,-41.49422 0.4149,-41.49424 h 8.4801 8.48 l 0.415,41.49424 0.4122,41.49422 18.4898,0.43929 c 13.7504,0.32667 18.81721,-0.0709 19.75642,-1.55119 0.69483,-1.09478 1.27236,-20.00208 1.28477,-42.01533 l 0.0239,-40.02483 8.14384,0.46961 8.14362,0.4696 0.41498,41.53965 0.41215,41.5427 18.97777,-0.43629 18.97471,-0.43321 0.77557,-41.10644 0.77556,-41.10641 12.40964,-0.85133 c 14.17577,-0.97111 18.32602,-2.75745 22.57094,-9.71916 5.56995,-9.13507 2.56584,-21.12562 -6.69564,-26.72768 -4.91429,-2.97262 -9.36376,-3.03266 -219.08073,-3.03266 z m 96.3856,145.02072 c -27.7605,5e-4 -59.8203,0.0152 -96.8552,0.0152 H 14.030376 l -5.2505,3.5356 c -7.0367,4.74189 -9.44169997,9.75569 -8.62849997,17.98104 0.4925,4.97953 1.95849997,8.07053 5.51709997,11.63389 4.5193,4.52555 5.7597,4.90582 18.3961,5.62911 l 13.5486,0.77561 v 88.41758 88.41762 l -13.5819,0.81193 c -12.762,0.76544 -13.8859,1.11899 -18.6144,5.84722 -4.43269997,4.43296 -5.03219997,6.03004 -5.03219997,13.4093 0,6.78834 0.73529997,9.16747 3.87779997,12.54887 2.133,2.29487 5.2742,4.75064 6.9805,5.4564 1.7063,0.70577 123.862104,1.31891 271.457504,1.36028 211.7082,0.0596 269.16506,-0.33375 272.18767,-1.86322 5.34145,-2.70276 10.904,-11.50926 10.89769,-17.24786 0,-5.78365 -4.68297,-13.93162 -9.604,-16.72976 -1.96524,-1.11745 -9.15921,-2.38155 -15.98454,-2.81152 l -12.40943,-0.78164 v -88.41771 -88.41758 l 13.44569,-0.80894 c 14.43254,-0.86679 17.99982,-2.64035 22.39206,-11.134 3.00258,-5.806 2.69967,-11.98615 -0.8724,-17.84469 -5.62478,-9.22505 10.65723,-9.78653 -183.66714,-9.78276 z m -264.7408,39.02504 c 5.6515,0.0559 8.1218,0.60284 9.1376,1.82688 1.3292,1.60165 1.6926,24.84004 1.3967,88.85994 l -0.4,86.69371 -15.1513,0.44234 c -11.250704,0.32988 -15.347804,-0.0694 -15.914904,-1.55121 -0.4198,-1.09749 -0.5821,-41.08341 -0.3604,-88.85992 l 0.4028,-86.86639 14.112204,-0.44536 c 2.6551,-0.0833 4.8937,-0.1186 6.7773,-0.1001 z m 86.8664,0 c 5.6518,0.0559 8.1219,0.60284 9.1377,1.82688 1.3291,1.60165 1.6925,24.84004 1.3964,88.85994 l -0.3998,86.69371 -15.1513,0.44234 c -11.2506,0.32988 -15.3478,-0.0694 -15.9149,-1.55121 -0.4198,-1.09749 -0.5821,-41.08341 -0.3604,-88.85992 l 0.4028,-86.86639 14.1123,-0.44536 c 2.655,-0.0833 4.8934,-0.1186 6.7772,-0.1001 z m 86.8664,0 c 5.6516,0.0559 8.1219,0.60284 9.1377,1.82688 1.3291,1.60165 1.6925,24.84004 1.3964,88.85994 l -0.4,86.69371 -15.1511,0.44234 c -11.2506,0.32988 -15.3478,-0.0694 -15.9149,-1.55121 -0.4198,-1.09749 -0.5821,-41.08341 -0.3606,-88.85992 l 0.403,-86.86639 14.1123,-0.44536 c 2.6548,-0.0833 4.8936,-0.1186 6.7772,-0.1001 z m 86.8664,0 c 5.6516,0.0559 8.1217,0.60284 9.1375,1.82688 1.3294,1.60165 1.6928,24.84004 1.3968,88.85994 l -0.4,86.69371 -15.1513,0.44234 c -11.2504,0.32988 -15.3478,-0.0694 -15.9149,-1.55121 -0.42,-1.09749 -0.5821,-41.08341 -0.3606,-88.85992 l 0.4031,-86.86639 14.1122,-0.44536 c 2.655,-0.0833 4.8934,-0.1186 6.7772,-0.1001 z m 86.86645,0 c 5.65154,0.0559 8.12163,0.60284 9.13744,1.82688 1.32938,1.60165 1.69279,24.84004 1.39684,88.85994 l -0.39997,86.69371 -15.15131,0.44234 c -11.25044,0.32988 -15.34782,-0.0694 -15.91491,-1.55121 -0.41998,-1.09749 -0.5821,-41.08341 -0.36058,-88.85992 l 0.40302,-86.86639 14.11222,-0.44536 c 2.65506,-0.0833 4.8934,-0.1186 6.77725,-0.1001 z"
     id="path3753"
     inkscape:connector-curvature="0" />
</svg>
