<?xml version="1.0" encoding="UTF-8" standalone="no"?>
<!-- Created with Inkscape (http://www.inkscape.org/) -->

<svg
   xmlns:dc="http://purl.org/dc/elements/1.1/"
   xmlns:cc="http://creativecommons.org/ns#"
   xmlns:rdf="http://www.w3.org/1999/02/22-rdf-syntax-ns#"
   xmlns:svg="http://www.w3.org/2000/svg"
   xmlns="http://www.w3.org/2000/svg"
   xmlns:sodipodi="http://sodipodi.sourceforge.net/DTD/sodipodi-0.dtd"
   xmlns:inkscape="http://www.inkscape.org/namespaces/inkscape"
   version="1.1"
   id="svg2"
   width="400"
   height="516.60547"
   viewBox="0 0 400.00001 516.60546"
   sodipodi:docname="money-bag.svg"
   inkscape:version="0.92.5 (0.92.5+68)">
  <metadata
     id="metadata8">
    <rdf:RDF>
      <cc:Work
         rdf:about="">
        <dc:format>image/svg+xml</dc:format>
        <dc:type
           rdf:resource="http://purl.org/dc/dcmitype/StillImage" />
        <dc:title></dc:title>
      </cc:Work>
    </rdf:RDF>
  </metadata>
  <defs
     id="defs6" />
  <sodipodi:namedview
     pagecolor="#ffffff"
     bordercolor="#666666"
     borderopacity="1"
     objecttolerance="10"
     gridtolerance="10"
     guidetolerance="10"
     inkscape:pageopacity="0"
     inkscape:pageshadow="2"
     inkscape:window-width="1920"
     inkscape:window-height="1056"
     id="namedview4"
     showgrid="false"
     fit-margin-top="0"
     fit-margin-left="0"
     fit-margin-right="0"
     fit-margin-bottom="0"
     inkscape:zoom="0.39947917"
     inkscape:cx="-380.81326"
     inkscape:cy="341.42547"
     inkscape:window-x="0"
     inkscape:window-y="24"
     inkscape:window-maximized="1"
     inkscape:current-layer="svg2" />
  <path
     style="fill:#000000;stroke-width:0.88051373"
     d="m 207.27032,0.0043039 c -14.88929,-0.092 -29.62892,1.28888 -41.37405,4.34094 -8.81482,2.2906 -18.70718,7.0899801 -22.23102,10.7871601 l -2.68747,2.82256 10.03726,33.38615 c 5.52152,18.36271 9.93911,33.48456 9.81837,33.60039 -0.12067,0.11589 -5.56745,-10.25225 -12.10527,-23.03683 -6.53782,-12.78458 -12.37024,-23.24739 -12.95764,-23.25106 -2.26895,-0.0143 -10.43207,3.7542 -15.99907,7.38241 -14.99033,9.76972 -23.287577,24.15011 -19.21287,33.29765 0.94254,2.11597 56.14431,67.881736 57.87615,68.952076 0.3822,0.23608 2.61454,-0.5535 4.96042,-1.75595 8.30096,-4.2549 14.15617,-5.12029 31.77924,-4.68095 l 16.0736,0.40056 12.03074,-17.4616 c 6.6173,-9.60364 12.13615,-17.45692 12.26829,-17.45692 0.13211,0 -1.54235,4.25833 -3.72613,9.46437 -8.03705,19.16029 -11.06119,26.75676 -10.75919,27.0331 0.17027,0.15572 3.27983,1.09526 6.91196,2.08663 3.63212,0.99136 7.59692,2.17681 8.80764,2.63625 1.21071,0.45944 2.45788,0.68432 2.776,0.49836 0.3181,-0.18601 9.23544,-10.30905 19.8137,-22.49652 10.57826,-12.18744 22.9017,-26.35621 27.38706,-31.481146 4.48533,-5.12492 9.21658,-11.45424 10.51237,-14.06616 4.72354,-9.5213 2.49392,-20.02189 -6.3391,-29.84633 -3.95471,-4.39858 -13.28475,-11.41017 -14.09876,-10.59619 -0.24653,0.24658 -5.65201,7.3455 -12.01209,15.77552 -6.36009,8.43001 -11.34762,14.73667 -11.08525,14.01026 0.26237,-0.72643 5.48463,-13.20205 11.60691,-27.72242 12.44347,-29.51252 11.99502,-26.39008 4.45738,-30.84773 C 257.32,4.3986839 232.08581,0.1579539 207.27032,0.0043039 Z m 0.99209,156.6326261 -9.73452,0.0143 -9.73452,0.01 -16.23663,22.0028 c -8.92944,12.10043 -16.40116,21.99816 -16.59993,21.99816 -0.19865,0 0.39978,-1.28589 1.32746,-2.85981 6.20644,-10.53009 21.55724,-38.63843 21.26223,-38.93342 -0.74239,-0.74239 -12.05862,3.62786 -16.73965,6.46484 C 126.57777,186.68442 80.539297,234.23146 48.737372,282.11034 6.0351317,346.40009 -9.1417332,404.58486 5.3279177,448.52871 c 2.7581249,8.37632 8.5906843,19.53721 13.9916333,26.78158 7.017697,9.41289 18.664549,20.27366 24.899889,23.21847 16.172869,7.63805 52.318021,13.97541 93.94043,16.4695 8.47496,0.50783 17.39233,1.04246 19.81373,1.18771 11.56112,0.6936 76.69658,0.48055 91.13188,-0.29809 53.38802,-2.87974 89.81245,-8.75337 108.25346,-17.4616 5.81023,-2.74372 17.5618,-13.68636 23.7215,-22.08665 13.28632,-18.11926 18.95152,-36.72674 18.91942,-62.15189 -0.0432,-34.12927 -11.86484,-70.88927 -36.66514,-114.02429 -32.94113,-57.29428 -88.86598,-117.38297 -126.9959,-136.45097 -4.84282,-2.42178 -10.26619,-4.64866 -12.04939,-4.94644 -2.84123,-0.47449 -3.193,-0.34116 -2.85981,1.08524 0.31562,1.35118 5.87496,26.28868 9.07314,40.69867 0.46979,2.11673 0.56057,3.50511 0.20031,3.08337 -0.36026,-0.42173 -5.5601,-11.16743 -11.55103,-23.87984 z m -7.8435,58.55153 c 1.01718,0 2.03691,0.30749 3.38612,0.9222 3.23974,1.47614 4.09874,4.41324 4.09874,13.99163 v 8.72382 l 3.30227,0.56356 c 14.0295,2.40566 21.79574,5.23795 28.74713,10.47044 12.79817,9.63353 21.58829,26.44574 18.90548,36.16211 -0.50065,1.8132 -2.36429,4.82347 -4.14067,6.68842 -7.9994,8.3983 -21.4116,5.64543 -25.27716,-5.18399 -3.15027,-8.82544 -6.67292,-15.09753 -9.90222,-17.63857 -4.07399,-3.20571 -10.35299,-6.43787 -11.08522,-5.70564 -0.30212,0.30212 -0.54961,11.98779 -0.54961,25.96648 0,19.56414 0.25199,25.49495 1.09922,25.75688 0.60536,0.1872 5.85602,1.78921 11.66743,3.56312 15.80924,4.82575 22.39868,8.28892 29.91621,15.71497 10.12297,9.99977 14.55054,20.98496 14.55054,36.09689 0,28.39659 -21.47792,51.32015 -51.50913,54.97443 l -5.28178,0.64276 -0.44249,13.94506 c -0.421,13.33643 -0.53201,14.02337 -2.51979,15.63111 -2.21389,1.79057 -5.46229,2.07697 -8.71915,0.76852 -3.06554,-1.23154 -3.73081,-4.34728 -3.73081,-17.49885 V 427.6106 l -7.60596,-1.49513 c -24.62181,-4.83772 -43.25528,-20.05234 -49.11043,-40.10248 -1.62344,-5.55925 -1.83397,-14.29855 -0.40986,-17.07034 1.46069,-2.84323 5.2902,-6.75068 7.9972,-8.16489 3.03304,-1.58446 10.46894,-1.599 14.22918,-0.0279 4.25508,1.77788 6.10229,4.65811 10.2655,16.00839 3.11719,8.49862 4.48476,11.00599 8.23939,15.11413 4.53834,4.96569 14.26201,10.65184 15.71963,9.19423 0.38601,-0.3859 0.59825,-13.4662 0.47043,-29.06848 l -0.23299,-28.3652 -10.43782,-3.49789 c -30.70698,-10.28916 -42.28222,-23.89294 -42.31489,-49.72058 -0.0191,-15.76666 4.2,-26.31117 14.3689,-35.89665 8.62991,-8.13477 19.29247,-12.69334 35.51935,-15.18397 l 3.30227,-0.50768 v -8.72382 c 0,-9.57839 0.86368,-12.51549 4.10342,-13.99163 1.34921,-0.61474 2.36434,-0.9222 3.38147,-0.9222 z m -8.33257,48.36985 c -1.8892,0 -10.16023,3.74153 -13.78668,6.2366 -5.68919,3.91429 -7.73641,8.4441 -7.73641,17.09831 0,8.70119 2.04128,13.17637 7.82955,17.15883 3.79121,2.60841 12.49572,7.02798 13.87984,7.04705 0.36319,0.005 0.66138,-10.68778 0.66138,-23.76342 0,-14.65294 -0.32506,-23.77737 -0.84768,-23.77737 z m 15.81743,84.41086 v 27.46625 27.46626 l 2.85981,-0.55891 c 1.57392,-0.30613 5.32144,-1.75802 8.32789,-3.22777 9.8098,-4.79559 14.54675,-12.17397 15.07222,-23.48861 0.39551,-8.51649 -1.38416,-13.28823 -6.68376,-17.94133 -2.96433,-2.60274 -13.01178,-7.82185 -17.59665,-9.14299 z"
     id="path829"
     inkscape:connector-curvature="0" />
</svg>
