<?xml version="1.0" encoding="UTF-8" standalone="no"?>
<!-- Created with Inkscape (http://www.inkscape.org/) -->

<svg
   xmlns:dc="http://purl.org/dc/elements/1.1/"
   xmlns:cc="http://creativecommons.org/ns#"
   xmlns:rdf="http://www.w3.org/1999/02/22-rdf-syntax-ns#"
   xmlns:svg="http://www.w3.org/2000/svg"
   xmlns="http://www.w3.org/2000/svg"
   xmlns:sodipodi="http://sodipodi.sourceforge.net/DTD/sodipodi-0.dtd"
   xmlns:inkscape="http://www.inkscape.org/namespaces/inkscape"
   version="1.1"
   id="svg2"
   width="400"
   height="349.97632"
   viewBox="0 0 400 349.97632"
   sodipodi:docname="crown-state.svg"
   inkscape:version="0.92.5 (0.92.5+68)">
  <metadata
     id="metadata8">
    <rdf:RDF>
      <cc:Work
         rdf:about="">
        <dc:format>image/svg+xml</dc:format>
        <dc:type
           rdf:resource="http://purl.org/dc/dcmitype/StillImage" />
        <dc:title></dc:title>
      </cc:Work>
    </rdf:RDF>
  </metadata>
  <defs
     id="defs6" />
  <sodipodi:namedview
     pagecolor="#ffffff"
     bordercolor="#666666"
     borderopacity="1"
     objecttolerance="10"
     gridtolerance="10"
     guidetolerance="10"
     inkscape:pageopacity="0"
     inkscape:pageshadow="2"
     inkscape:window-width="1920"
     inkscape:window-height="1056"
     id="namedview4"
     showgrid="false"
     fit-margin-top="0"
     fit-margin-left="0"
     fit-margin-right="0"
     fit-margin-bottom="0"
     inkscape:zoom="0.22466667"
     inkscape:cx="-850.03812"
     inkscape:cy="1076.9669"
     inkscape:window-x="0"
     inkscape:window-y="24"
     inkscape:window-maximized="1"
     inkscape:current-layer="svg2" />
  <path
     inkscape:connector-curvature="0"
     id="path3731"
     d="m 45.640137,348.84636 c -0.57673,-0.6949 -0.77276,-5.1324 -0.63528,-14.3819 l 0.1988,-13.3769 H 200.3101 355.41658 l 0.1988,13.3769 c 0.13748,9.2495 -0.0583,13.687 -0.63528,14.3819 -1.25039,1.5066 -308.089573,1.5066 -309.339963,0 z m 3.99352,-48.6928 c -0.18256,-0.9021 -0.50202,-4.2864 -0.70992,-7.5207 -0.77466,-12.0509 -4.90042,-26.518 -11.55391,-40.5135 -2.1495,-4.5216 -8.13617,-15.9216 -13.30362,-25.3336 -16.4451404,-29.9531 -21.2441204,-42.6065 -23.66888045,-62.4073 -1.36443,-11.1427 0.86131005,-25.2072 5.50839005,-34.8074 6.2862504,-12.9863 16.8052404,-22.1248 31.2877404,-27.1814 6.66427,-2.3269 12.11622,-2.945298 23.66649,-2.684498 19.21951,0.434098 30.60884,2.868998 62.989253,13.466398 23.9674,7.844 29.01907,9.3713 38.73696,11.7119 12.30788,2.9643 12.12459,2.99 17.12703,-2.3992 2.31684,-2.4959 4.21242,-4.835 4.21242,-5.1979 0,-0.363 -1.26102,-2.0281 -2.80233,-3.7001 -3.91968,-4.2524 -6.68531,-9.237 -8.24409,-14.858398 -1.56228,-5.6341 -1.63969,-9.1681 -0.32114,-14.6693 2.01507,-8.4073 7.00812,-15.8808 13.88218,-20.7787 2.26025,-1.6104 4.29142,-3.6929 4.59217,-4.7082 0.93741,-3.1645 0.49947,-15.1163 -0.60259,-16.4442 -0.86131,-1.0379 -2.03874,-1.1318 -8.74072,-0.6974 -9.02596,0.585 -9.75059,0.229 -10.56304,-5.1884 -0.75544,-5.038 0.1712,-14.8718 1.52914,-16.2269 0.86867,-0.8669 2.86365,-1.1401 8.568,-1.1735 4.08964,-0.024 7.80411,-0.1058 8.25436,-0.182 0.52838,-0.089 0.93238,-3.1115 1.13956,-8.5237 0.1902,-4.9703001 0.66513,-8.7294001 1.16606,-9.23030014 0.95933,-0.9593 11.80397,-1.254 14.8501,-0.4035 2.54702,0.71110004 3.03987,2.44830004 2.9326,10.33720014 -0.0502,3.7256 0.24774,6.9234 0.69645,7.464 0.55446,0.6681 3.0781,0.9459 8.59319,0.9459 10.31488,0 10.21846,-0.1053 10.21846,11.1624 0,7.7114 -0.14433,8.6433 -1.55711,10.0562 -1.45457,1.4545 -2.04216,1.5268 -8.92044,1.0969 -4.29514,-0.2684 -7.81846,-0.1702 -8.45563,0.2356 -0.83568,0.5323 -1.15012,2.5799 -1.33829,8.7153 -0.27861,9.0829 -1.22206,7.2471 7.79938,15.1765 6.34102,5.5734 10.12227,12.436 11.60954,21.0706 1.38351,8.0318 -1.99956,18.669698 -8.13384,25.576598 -1.86062,2.095 -3.383,4.3017 -3.383,4.9038 0,0.6022 1.90031,3.0489 4.2229,5.4372 3.18508,3.2752 4.72646,4.3424 6.27199,4.3424 1.93475,0 21.38335,-4.8471 27.72007,-6.9086 1.61056,-0.5239 9.97364,-3.2596 18.5846,-6.0793 33.33697,-10.9161 45.71789,-13.7026 64.10442,-14.427598 26.17666,-1.0321 44.8525,8.368998 55.90933,28.143698 6.72835,12.0335 8.37196,31.1873 4.24926,49.5176 -2.90529,12.9175 -8.00917,24.6435 -21.47693,49.3423 -19.18572,35.1849 -23.31126,46.4712 -25.4845,69.7183 l -0.47654,5.0974 -150.17686,0.1838 -150.176753,0.1838 z m 111.557273,-23.1121 c 4.1101,-1.8655 10.05199,-7.9727 13.47402,-13.8489 1.51509,-2.6015 3.80892,-8.007 5.0974,-12.0121 2.2845,-7.1008 2.34043,-7.59 2.24795,-19.6614 -0.0787,-10.2766 -0.42323,-13.9874 -2.02796,-21.846 -2.3692,-11.6024 -4.78253,-19.7027 -8.56967,-28.7639 -4.8595,-11.6269 -7.89106,-21.2306 -8.14047,-25.7882 -0.19181,-3.5045 -0.56159,-4.5703 -1.98624,-5.7239 -3.72947,-3.0198 -16.65821,-8.7499 -30.86943,-13.6814 -12.52073,-4.3449 -37.996133,-12.0157 -44.433703,-13.3793 -3.20408,-0.6786 -6.97251,-1.4949 -8.3743,-1.8139 -3.86776,-0.8802 -17.13031,-0.9334 -23.53613,-0.094 -13.70086,1.7946 -23.58725,8.1679 -28.30985,18.25 -5.08574,10.8574 -4.74633,27.0338 0.92227,43.9534 5.87497,17.5357 27.92069,56.4681 41.70267,73.6463 4.41464,5.5025 12.08301,13.2626 15.89841,16.0886 8.43496,6.2476 20.083893,7.1925 24.764323,2.0088 3.45625,-3.8279 3.15725,-15.5751 -0.5578,-21.9144 l -1.8173,-3.1009 -8.161583,-0.07 c -4.48884,-0.039 -9.9617,-0.4483 -12.16195,-0.9103 -3.34076,-0.7015 -4.17266,-1.2003 -5.04461,-3.0246 -2.02075,-4.2282 -3.47729,-13.9089 -2.3448,-15.5852 0.82891,-1.2269 6.27985,-1.3276 15.75904,-0.2912 3.60459,0.3941 6.963413,0.5698 7.464043,0.3904 1.45844,-0.5225 1.06798,-3.7231 -1.30551,-10.7013 -1.218723,-3.583 -2.119863,-7.182 -2.002553,-7.9978 0.40706,-2.8316 3.481743,-3.5156 11.239683,-2.5006 3.8414,0.5025 7.37513,1.3045 7.85269,1.7821 0.47755,0.4776 1.77557,4.6481 2.8844,9.2678 1.1089,4.6197 2.45672,9.0008 2.9953,9.7356 0.87435,1.1931 1.94764,1.3137 10.02286,1.1261 7.82971,-0.182 9.26142,-0.034 10.66576,1.1034 1.89171,1.5317 4.43415,9.8752 4.43415,14.5513 0,2.7379 -0.22225,3.1525 -1.91801,3.5781 -1.05494,0.2648 -4.98874,0.2797 -8.74174,0.033 -3.97316,-0.261 -7.62414,-0.1439 -8.73996,0.2803 -1.81634,0.6906 -1.89317,0.9231 -1.47409,4.4618 0.546,4.6105 3.8963,10.4383 8.89153,15.4671 7.28524,7.3342 17.15576,10.1832 24.20116,6.9855 z m 93.99897,-1.2037 c 7.95259,-3.486 16.84784,-15.1215 16.84784,-22.0379 0,-4.0806 -1.12769,-4.5022 -10.66892,-3.9895 -10.65676,0.5726 -11.06834,0.2737 -9.76472,-7.092 1.07985,-6.1015 3.00528,-10.4202 5.1598,-11.5732 0.8828,-0.4725 4.79542,-0.7004 9.79545,-0.5706 6.64096,0.1725 8.54688,-0.01 9.41926,-0.876 0.60157,-0.6008 2.10057,-5.0246 3.33108,-9.8307 1.23058,-4.8061 2.70118,-9.089 3.26816,-9.5176 0.56697,-0.4284 4.11083,-1.182 7.87525,-1.6745 11.51451,-1.5065 12.52736,-0.097 8.51921,11.8546 -1.19665,3.5684 -2.17579,6.9354 -2.17579,7.4821 0,1.9321 3.53643,2.502 9.75067,1.5712 5.79821,-0.8685 13.18259,-0.9274 14.49612,-0.1156 0.85061,0.5257 -0.0219,10.0886 -1.24493,13.6467 -0.50727,1.4755 -1.38446,3.112 -1.94932,3.6366 -1.58201,1.4695 -8.89721,2.6086 -16.75194,2.6086 -6.81303,0 -7.17029,0.08 -8.61846,1.9206 -3.70952,4.7159 -4.90136,16.1571 -2.2288,21.3957 2.07632,4.07 4.84974,5.2957 11.20517,4.9523 8.33614,-0.4504 12.29194,-2.7278 22.26892,-12.8205 13.55376,-13.7109 25.2477,-31.5402 40.50734,-61.7596 4.8734,-9.6512 9.19512,-18.9905 9.60371,-20.7537 0.40859,-1.7634 1.23321,-5.0084 1.83237,-7.2112 3.53024,-12.9777 2.93348,-28.1311 -1.46223,-37.1289 -4.4865,-9.1837 -14.92765,-15.8051 -27.60087,-17.5033 -7.00011,-0.9381 -20.24635,-0.6152 -27.23357,0.6639 -18.49779,3.3862 -66.48672,19.8069 -78.28144,26.7861 l -3.64099,2.1545 -0.42848,5.0498 c -0.42949,5.0617 -2.63804,12.271 -6.67788,21.7984 -7.25155,17.1018 -12.93937,41.8277 -12.92393,56.183 0.0102,9.6446 3.70952,22.7357 8.84908,31.316 7.67558,12.8144 17.19206,16.5767 28.92284,11.4347 z"
     style="fill:#000000;stroke-width:0.72819942"
     sodipodi:nodetypes="ccccccccccccccssssssccccscscccccccccsscccccccscscsscsccccccccccccccscsscscscccccccccccssccscscccsccccsscccccsccsccccsccsccsccscscccccc" />
</svg>
