<?xml version="1.0" encoding="UTF-8" standalone="no"?>
<!-- Created with Inkscape (http://www.inkscape.org/) -->

<svg
   xmlns:dc="http://purl.org/dc/elements/1.1/"
   xmlns:cc="http://creativecommons.org/ns#"
   xmlns:rdf="http://www.w3.org/1999/02/22-rdf-syntax-ns#"
   xmlns:svg="http://www.w3.org/2000/svg"
   xmlns="http://www.w3.org/2000/svg"
   xmlns:sodipodi="http://sodipodi.sourceforge.net/DTD/sodipodi-0.dtd"
   xmlns:inkscape="http://www.inkscape.org/namespaces/inkscape"
   version="1.1"
   id="svg2"
   width="400"
   height="438.23529"
   viewBox="0 0 400 438.23529"
   sodipodi:docname="statute.svg"
   inkscape:version="0.92.5 (0.92.5+68)">
  <metadata
     id="metadata8">
    <rdf:RDF>
      <cc:Work
         rdf:about="">
        <dc:format>image/svg+xml</dc:format>
        <dc:type
           rdf:resource="http://purl.org/dc/dcmitype/StillImage" />
        <dc:title></dc:title>
      </cc:Work>
    </rdf:RDF>
  </metadata>
  <defs
     id="defs6" />
  <sodipodi:namedview
     pagecolor="#ffffff"
     bordercolor="#666666"
     borderopacity="1"
     objecttolerance="10"
     gridtolerance="10"
     guidetolerance="10"
     inkscape:pageopacity="0"
     inkscape:pageshadow="2"
     inkscape:window-width="1920"
     inkscape:window-height="1056"
     id="namedview4"
     showgrid="false"
     fit-margin-top="0"
     fit-margin-left="0"
     fit-margin-right="0"
     fit-margin-bottom="0"
     inkscape:zoom="0.4609375"
     inkscape:cx="-182.77966"
     inkscape:cy="267.22034"
     inkscape:window-x="0"
     inkscape:window-y="24"
     inkscape:window-maximized="1"
     inkscape:current-layer="svg2" />
  <path
     sodipodi:nodetypes="ccccccccccccccccccscccccscccccsccccccccscscccssccccccccscscccsssssscscccccsccccccscccccsccccccscccccsccccccscccccsccccc"
     inkscape:connector-curvature="0"
     id="path837"
     d="M 3.6096324,434.62566 0,431.01604 V 258.82353 7.21925 L 3.6096324,3.60963 7.21925,0 H 200 392.78075 L 396.39037,3.60963 400,7.21925 v 251.60428 172.19251 l -3.60963,3.60962 -3.60962,3.60963 H 200 7.21925 Z M 325.80213,372.86095 c 2.27536,-2.27534 3.60963,-5.28982 3.60963,-8.15507 0,-2.86525 -1.33427,-5.87974 -3.60963,-8.15508 l -3.60962,-3.60963 H 200 77.807485 l -3.609617,3.60963 c -2.275353,2.27534 -3.609633,5.28983 -3.609633,8.15508 0,2.86525 1.33428,5.87973 3.609633,8.15507 l 3.609617,3.60963 H 200 322.19251 Z M 137.5,301.48044 c 9.38238,-4.61422 18.19978,-13.43587 22.793,-22.80397 2.95999,-6.03706 3.60849,-9.58993 3.62374,-19.85294 0.0197,-13.24381 -2.09015,-19.30202 -10.62699,-30.51471 l -3.63884,-4.77941 3.63884,-4.77941 c 8.53684,-11.2127 10.64665,-17.2709 10.62699,-30.51471 -0.0153,-10.26301 -0.66375,-13.81588 -3.62374,-19.85294 -7.68029,-15.66435 -21.67637,-25.01077 -40.6374,-27.13715 -12.57053,-1.40973 -19.1345,-5.40131 -23.292909,-14.1645 -5.187853,-10.93259 0.172588,-25.17638 11.497129,-30.550219 4.01802,-1.906676 9.75667,-2.412838 27.35574,-2.412838 21.68504,0 22.36606,-0.095 25.88069,-3.609632 4.82525,-4.825236 4.77693,-11.533221 -0.11838,-16.4285 l -3.72797,-3.727971 -26.05145,0.511235 c -24.13694,0.473647 -26.5918,0.776971 -33.404376,4.127368 -9.382383,4.614221 -18.19978,13.435868 -22.793,22.803971 -2.959986,6.037056 -3.608486,9.589926 -3.623736,19.852946 -0.01971,13.2438 2.090147,19.30201 10.626986,30.5147 l 3.638838,4.77941 -3.638838,4.77941 c -8.536839,11.21269 -10.646648,17.2709 -10.626986,30.51471 0.01529,10.26302 0.66375,13.81588 3.623736,19.85294 7.680294,15.66435 21.676367,25.01077 40.637396,27.13715 12.57053,1.40973 19.1345,5.40131 23.29291,14.1645 5.18785,10.93259 -0.17259,25.17638 -11.49713,30.55022 -4.01802,1.90668 -9.75666,2.41284 -27.35574,2.41284 -21.685039,0 -22.366054,0.095 -25.880686,3.60963 -4.82525,4.82523 -4.776927,11.53322 0.118382,16.4285 l 3.72797,3.72797 26.051444,-0.51124 c 24.13694,-0.47364 26.5918,-0.77697 33.40438,-4.12736 z m -29.48468,-91.78427 c -14.838011,-6.46303 -18.342173,-26.18592 -6.71775,-37.81037 9.53905,-9.53904 23.15993,-9.53904 32.69897,0 18.2518,18.25181 -2.28122,48.13345 -25.98122,37.81037 z m 217.78681,92.57655 c 2.27536,-2.27534 3.60963,-5.28983 3.60963,-8.15508 0,-2.86525 -1.33427,-5.87973 -3.60963,-8.15507 l -3.60962,-3.60963 h -51.60427 -51.60428 l -3.60962,3.60963 c -2.27535,2.27534 -3.60963,5.28982 -3.60963,8.15507 0,2.86525 1.33428,5.87974 3.60963,8.15508 l 3.60962,3.60963 h 51.60428 51.60427 z m 0,-70.58824 c 2.27536,-2.27534 3.60963,-5.28982 3.60963,-8.15507 0,-2.86525 -1.33427,-5.87974 -3.60963,-8.15508 l -3.60962,-3.60963 h -51.60427 -51.60428 l -3.60962,3.60963 c -2.27535,2.27534 -3.60963,5.28983 -3.60963,8.15508 0,2.86525 1.33428,5.87973 3.60963,8.15507 l 3.60962,3.60963 h 51.60428 51.60427 z m 0,-70.58823 c 2.27536,-2.27534 3.60963,-5.28983 3.60963,-8.15508 0,-2.86525 -1.33427,-5.87973 -3.60963,-8.15507 l -3.60962,-3.60963 h -51.60427 -51.60428 l -3.60962,3.60963 c -2.27535,2.27534 -3.60963,5.28982 -3.60963,8.15507 0,2.86525 1.33428,5.87974 3.60963,8.15508 l 3.60962,3.60963 h 51.60428 51.60427 z m 0,-70.588239 c 2.27536,-2.275339 3.60963,-5.289824 3.60963,-8.155074 0,-2.86525 -1.33427,-5.879735 -3.60963,-8.155073 l -3.60962,-3.609633 h -51.60427 -51.60428 l -3.60962,3.609633 c -2.27535,2.275338 -3.60963,5.289823 -3.60963,8.155073 0,2.86525 1.33428,5.879735 3.60963,8.155074 l 3.60962,3.609632 h 51.60428 51.60427 z"
     style="fill:#000000;stroke-width:1.47058821" />
</svg>
