<?xml version="1.0" encoding="UTF-8" standalone="no"?>
<svg
   xmlns:dc="http://purl.org/dc/elements/1.1/"
   xmlns:cc="http://creativecommons.org/ns#"
   xmlns:rdf="http://www.w3.org/1999/02/22-rdf-syntax-ns#"
   xmlns:svg="http://www.w3.org/2000/svg"
   xmlns="http://www.w3.org/2000/svg"
   xmlns:sodipodi="http://sodipodi.sourceforge.net/DTD/sodipodi-0.dtd"
   xmlns:inkscape="http://www.inkscape.org/namespaces/inkscape"
   version="1.0"
   width="410.99994pt"
   height="501.3999pt"
   viewBox="0 0 410.99994 501.3999"
   preserveAspectRatio="xMidYMid meet"
   id="svg28"
   sodipodi:docname="thinktank.svg"
   inkscape:version="0.92.5 (0.92.5+68)">
  <defs
     id="defs32" />
  <sodipodi:namedview
     pagecolor="#ffffff"
     bordercolor="#666666"
     borderopacity="1"
     objecttolerance="10"
     gridtolerance="10"
     guidetolerance="10"
     inkscape:pageopacity="0"
     inkscape:pageshadow="2"
     inkscape:window-width="1920"
     inkscape:window-height="1056"
     id="namedview30"
     showgrid="false"
     showguides="true"
     inkscape:guide-bbox="true"
     fit-margin-top="0"
     fit-margin-left="0"
     fit-margin-right="0"
     fit-margin-bottom="0"
     inkscape:zoom="0.22125"
     inkscape:cx="-477.65212"
     inkscape:cy="1025.7529"
     inkscape:window-x="0"
     inkscape:window-y="24"
     inkscape:window-maximized="1"
     inkscape:current-layer="svg28" />
  <metadata
     id="metadata2">
Created by potrace 1.16, written by Peter Selinger 2001-2019
<rdf:RDF>
  <cc:Work
     rdf:about="">
    <dc:format>image/svg+xml</dc:format>
    <dc:type
       rdf:resource="http://purl.org/dc/dcmitype/StillImage" />
    <dc:title></dc:title>
  </cc:Work>
</rdf:RDF>
</metadata>
  <path
     style="fill:#000000;stroke-width:0.1"
     d="m 207.3003,0 c -24,0 -31.9011,0.80011 -51.501,5.60011 -35.9001,8.7 -65.3998,30.29931 -81.7998,59.79931 -7.3001,13 -13.3002,33 -14.6001,48 -0.9,10.1 2.3997,38.80138 8.2998,72.40137 l 1.1001,5.89893 -3.6988,3.60059 c -1.9,1.89999 -4.7006,6 -6.2006,9 -2.3001,5.1 -2.6001,6.69912 -2.6001,18.59912 0,14.7 1.8001,23.90078 6.7002,34.30078 3,6.5 7.7004,10.9003 14.5004,13.80029 5.1,2.20001 9.7991,6.99912 11.0992,11.09912 0.6,2.1 2.4004,9.19981 4.0005,15.79981 4.9999,20.7 11.7,33.70049 25.1001,49.00049 3.3999,3.8 7.4003,9.39951 8.9003,12.49951 2.6,5.3 2.6986,6 2.5987,22.50001 0,14.1 -0.3988,18.39999 -2.1988,25.5 -7.6,29.29999 -26.2007,49.00048 -64.7006,68.50048 -7.7001,3.9 -16.9005,8.40088 -20.5005,9.90088 -11.7,5 -40.0994,15.59913 -41.7993,15.59913 404.59993,-3.00001 1.6036,-0.42432 410.99994,-0.7998 l -6.3999,-2.20021 C 382.7,490.69993 350.9998,476.39973 336.3998,467.69973 c -16.4999,-9.9 -32.1005,-24.49971 -39.6005,-37.19971 -5.8,-9.7 -9.699,-21.79971 -11.499,-35.69971 -1.9001,-14.4 -1.9001,-20.20078 0,-28.30078 1.8999,-7.8 3.4993,-10.49873 12.8994,-21.69873 13.0999,-15.5 18.6007,-26.50068 23.8007,-48.20068 1.6,-7.00001 3.5001,-14.00059 4.1001,-15.6006 1.4,-3.79999 5.0997,-7.1996 11.6997,-10.5996 11,-5.7 15.9001,-13.8002 19.1001,-32.2002 3.5,-19.3 1.0992,-33.2999 -7.3007,-42.39991 l -3.8995,-4.1997 1.5996,-10.40039 c 3.7,-23.6 4.6,-29.89981 6,-41.29981 3.4,-27.7 0.7,-45.8 -10.5,-69 -15.7,-32.7 -47.3998,-56.9004 -86.2997,-65.9004 C 238.0999,0.69952 230.4003,0 207.3003,0 Z m 1.749,62.53126 c 1.95,-0.0875 3.8502,0.61231 5.2002,2.1123 1.3999,1.6 1.9998,4.00049 2.2998,10.00049 0.3999,9.2 -0.2004,12.19892 -2.9004,14.89892 -2.7,2.7 -6.3003,2.50011 -9.7002,-0.3999 -2.7,-2.3 -2.7993,-2.79893 -2.7993,-11.89892 0,-8.7 0.1994,-9.80107 2.3994,-12.10108 1.55,-1.65 3.5505,-2.52431 5.5005,-2.61181 z m 68.3012,22.1001 c 4.036,0.0562 7.2994,2.58661 7.2994,6.41161 0,3.99999 -2.4006,7.80089 -8.1006,12.90089 -4.8,4.30003 -5.5998,4.69892 -9.7998,4.39892 -3.7001,-0.2 -4.8,-0.79892 -6,-2.89892 -0.9,-1.60001 -1.2003,-3.59981 -0.7002,-5.29981 0.8,-3.1 10.0001,-13.40118 13.1001,-14.70117 1.425,-0.57501 2.8558,-0.83032 4.2011,-0.81152 z m -138.0806,0.14062 c 4.8235,0.12187 11.8542,4.77188 16.5792,11.67188 4.1,5.89999 1.2006,12.09961 -5.3994,12.09961 -3.5001,0 -4.7004,-0.7007 -10.4004,-6.20069 -5.8,-5.5 -6.3999,-6.49863 -6.3999,-10.09863 0,-2.4 0.7006,-4.8 1.7007,-6 0.9499,-1.05 2.3121,-1.51277 3.9198,-1.47217 z m 74.004,20.87109 c 6.975,0 13.8762,0.50001 18.0762,1.5 19.0999,4.40001 33.0993,17.00069 38.3994,34.70069 1.6999,5.49999 2.0991,8.69912 1.6992,17.09912 -0.3,9.49999 -0.5991,10.90117 -3.999,17.70117 -2.0001,4.10001 -8.1996,13.29903 -13.5996,20.49903 -11.4,15.10001 -15.6009,23.10029 -17.4009,33.30029 l -1.1997,7.1001 -22.1001,-0.20068 -22.0005,-0.29883 -0.7998,-4.00049 c -2.9001,-13.9 -5.5002,-19.50029 -16.1001,-33.30029 -15,-19.8 -18.7992,-27.19971 -20.0991,-38.69971 -0.9,-7.7 1.5996,-19.79942 5.6997,-27.89942 6.3,-12.4 20.1999,-22.80097 34.8999,-26.00098 4.5,-0.99999 11.5494,-1.5 18.5244,-1.5 z m 1.437,16.99512 c -0.6375,-0.008 -1.2618,-0.007 -1.8618,0.006 -22.9,0.2 -35.9994,9.29874 -39.8994,27.69873 -2.3001,11.1 -0.1,16.60108 15,37.60108 8.6,12.1 13.5,20.59912 16.5,29.09912 l 1.8003,5.00098 h 6.7998 6.7002 l 2.8989,-7.20117 c 3.2,-8.29999 9.6002,-18.99932 18.7002,-31.29932 3.5,-4.70001 7.701,-11.29972 9.501,-14.69971 2.7999,-5.8 2.9985,-6.90019 2.5986,-14.2002 -0.9,-16.19999 -9.5991,-26.30018 -26.499,-30.70019 -2.625,-0.69999 -7.7763,-1.24638 -12.2388,-1.30518 z m 77.9385,28.90576 c 8.1,0 9.1003,0.2001 11.9004,2.6001 3.7999,3.20001 3.9995,6.2998 0.4995,9.79981 -2.5,2.49999 -3.2007,2.60009 -12.6006,2.60009 -9.2001,0 -10.0989,-0.20047 -12.2988,-2.50048 -3.4001,-3.3 -3.201,-6.69941 0.5991,-9.89942 2.7999,-2.4 3.8004,-2.6001 11.9004,-2.6001 z m -168.1099,0.25196 c 0.6326,0.007 1.2727,0.0219 1.9102,0.0469 8.4999,0.20001 9.5997,0.4001 11.2998,2.6001 2.4999,3.1 2.3997,6.90127 -0.3003,9.80127 -2.0001,2.1 -2.9994,2.2998 -11.7993,2.2998 -8.3001,0 -10.1,-0.30058 -12.3999,-2.10058 -4.1001,-3.19999 -3.1008,-9.9004 1.6992,-11.90039 1.05,-0.43751 5.162,-0.79767 9.5903,-0.74707 z m 25.812,57.83496 c 4.036,0.0563 7.2979,2.58809 7.2979,6.41309 0,4.00001 -2.4006,7.79941 -8.1006,12.89941 -4.4001,3.9 -5.6988,4.59961 -9.2988,4.59961 -5.3001,0 -6.6006,-1.2998 -6.6006,-6.7998 0,-3.8 0.5997,-4.89941 5.2998,-9.89942 2.7999,-3 6.0996,-5.89991 7.1997,-6.3999 1.425,-0.575 2.8573,-0.83169 4.2026,-0.81299 z m 116.4301,0.0293 c 4.4549,-0.0551 10.1736,3.83339 15.4674,10.98339 4.7,6.39999 2.3001,12.89942 -4.8999,12.89942 -3.5001,0 -4.5993,-0.69883 -10.2993,-6.29882 -7.5,-7.30001 -8.7009,-10.70001 -5.4009,-15 1.3437,-1.71876 3.1079,-2.55899 5.1327,-2.58399 z m -77.2323,33.8833 h 23.1006 22.9995 v 7.5 7.5 l -22.7007,-0.20068 -22.7988,-0.29883 -0.3003,-7.30078 z m 15.6401,19.93946 c 13.2246,-0.0654 30.5605,0.41015 31.0606,1.16015 1.2,2 0.7989,15.69982 -0.501,17.29981 -0.6,0.7 -3.8997,2.40058 -7.1997,3.60058 -11.1,4.2 -30.7996,2.49932 -37.5996,-3.20068 -1.4001,-1.09999 -1.9006,-16.89961 -0.6006,-18.09961 0.45,-0.4875 6.9055,-0.72095 14.8403,-0.76025 z"
     id="path4"
     inkscape:connector-curvature="0" />
</svg>
