<?xml version="1.0" encoding="UTF-8" standalone="no"?>
<svg
   xmlns:dc="http://purl.org/dc/elements/1.1/"
   xmlns:cc="http://creativecommons.org/ns#"
   xmlns:rdf="http://www.w3.org/1999/02/22-rdf-syntax-ns#"
   xmlns:svg="http://www.w3.org/2000/svg"
   xmlns="http://www.w3.org/2000/svg"
   xmlns:xlink="http://www.w3.org/1999/xlink"
   xmlns:sodipodi="http://sodipodi.sourceforge.net/DTD/sodipodi-0.dtd"
   xmlns:inkscape="http://www.inkscape.org/namespaces/inkscape"
   height="309.93768"
   width="425.33563"
   version="1.1"
   x="0px"
   y="0px"
   viewBox="0 0 141.77854 103.31256"
   enable-background="new 0 0 100 100"
   xml:space="preserve"
   id="svg28"
   sodipodi:docname="writer.svg"
   inkscape:version="0.92.5 (0.92.5+68)"
   style="fill:#000000"><metadata
     id="metadata34"><rdf:RDF><cc:Work
         rdf:about=""><dc:format>image/svg+xml</dc:format><dc:type
           rdf:resource="http://purl.org/dc/dcmitype/StillImage" /><dc:title></dc:title></cc:Work></rdf:RDF></metadata><defs
     id="defs32" /><sodipodi:namedview
     pagecolor="#ffffff"
     bordercolor="#666666"
     borderopacity="1"
     objecttolerance="10"
     gridtolerance="10"
     guidetolerance="10"
     inkscape:pageopacity="0"
     inkscape:pageshadow="2"
     inkscape:window-width="1920"
     inkscape:window-height="1056"
     id="namedview30"
     showgrid="false"
     inkscape:zoom="0.78666667"
     inkscape:cx="54.10973"
     inkscape:cy="154.89442"
     inkscape:window-x="0"
     inkscape:window-y="24"
     inkscape:window-maximized="1"
     inkscape:current-layer="svg28"
     fit-margin-top="0"
     fit-margin-left="0"
     fit-margin-right="0"
     fit-margin-bottom="0" /><g
     id="g10"
     transform="matrix(1.530656,0,0,1.530656,-4.4970673,-24.838555)"><defs
       id="defs3"><rect
         id="d"
         x="2.938"
         y="16.226999"
         width="92.626999"
         height="67.497002" /></defs><clipPath
       id="c"><use
         xlink:href="#d"
         overflow="visible"
         id="use5"
         x="0"
         y="0"
         width="100%"
         height="100%" /></clipPath><path
       clip-path="url(#c)"
       d="m 81.706,17.628 c -1.392,-1.659 -3.862,-1.875 -5.521,-0.483 l -49.852,41.829 -2.35,6.462 c -1.259,3.453 -4.694,5.643 -8.354,5.322 -0.704,-0.062 -1.402,-0.215 -2.075,-0.463 -0.149,-0.053 -0.291,-0.12 -0.436,-0.18 -1.302,1.428 -1.382,3.631 -0.106,5.152 0.695,0.831 1.662,1.299 2.661,1.387 1,0.088 2.032,-0.206 2.862,-0.904 l 5.409,-4.537 c -0.016,-0.404 -0.01,-0.813 0.026,-1.227 0.452,-5.167 5.023,-9.004 10.19,-8.551 l 1.3,0.113 45.762,-38.398 c 1.659,-1.393 1.876,-3.864 0.484,-5.522"
       id="path8"
       inkscape:connector-curvature="0" /></g><rect
     x="118.02123"
     y="47.497185"
     width="23.757311"
     height="54.717892"
     id="rect12"
     style="stroke-width:1.53065598" /><g
     id="g26"
     transform="matrix(1.530656,0,0,1.530656,-4.4970673,-24.838555)"><defs
       id="defs15"><rect
         id="b"
         x="2.938"
         y="16.226999"
         width="92.626999"
         height="67.497002" /></defs><clipPath
       id="a"><use
         xlink:href="#b"
         overflow="visible"
         id="use17"
         x="0"
         y="0"
         width="100%"
         height="100%" /></clipPath><path
       clip-path="url(#a)"
       d="m 54.271,32.639 -3.514,-2.712 c -1.998,-1.641 -4.824,-2.123 -7.346,-1 l -14.169,6.308 -9.1,4 c -1.919,0.855 -3.26,2.463 -3.85,4.32 -0.114,0.227 -0.221,0.461 -0.309,0.707 l -5.86,16.1 c -0.855,2.352 -0.286,4.873 1.269,6.619 0.033,0.037 0.067,0.07 0.101,0.107 0.093,0.102 0.19,0.201 0.29,0.299 0.044,0.041 0.086,0.081 0.13,0.122 0.129,0.116 0.262,0.228 0.399,0.336 0.039,0.029 0.08,0.06 0.122,0.088 0.125,0.093 0.253,0.181 0.387,0.265 0.032,0.023 0.064,0.043 0.097,0.064 0.16,0.098 0.326,0.186 0.496,0.271 0.041,0.02 0.083,0.039 0.123,0.059 0.18,0.083 0.362,0.164 0.551,0.233 0.553,0.199 1.118,0.321 1.678,0.371 2.89,0.253 5.702,-1.444 6.743,-4.3 l 4.872,-13.386 9.37,-4.171 z"
       id="path20"
       inkscape:connector-curvature="0" /><path
       clip-path="url(#a)"
       d="M 14.885,77.984 C 13.656,77.799 12.545,77.203 11.74,76.242 10.965,75.319 10.598,74.199 10.575,73.076 L 5.461,80.203 6.84,81.849 Z M 4.992,80.861 2.938,83.723 6.113,82.198 Z"
       id="path22"
       inkscape:connector-curvature="0" /><path
       clip-path="url(#a)"
       d="m 34.026,62.997 c -4.313,-0.378 -8.116,2.813 -8.493,7.127 -0.378,4.315 2.814,8.116 7.126,8.492 l 44.677,1.776 V 49.989 L 64.353,40.201 49.837,52.381 c 0.119,0.118 0.208,0.256 0.335,0.369 l 5.686,4.172 c 0.851,0.799 1.362,1.938 1.253,3.193 -0.186,2.113 -2.008,3.678 -4.107,3.592 z"
       id="path24"
       inkscape:connector-curvature="0" /></g></svg>