<?xml version="1.0" encoding="UTF-8" standalone="no"?>
<!-- Created with Inkscape (http://www.inkscape.org/) -->

<svg
   xmlns:dc="http://purl.org/dc/elements/1.1/"
   xmlns:cc="http://creativecommons.org/ns#"
   xmlns:rdf="http://www.w3.org/1999/02/22-rdf-syntax-ns#"
   xmlns:svg="http://www.w3.org/2000/svg"
   xmlns="http://www.w3.org/2000/svg"
   xmlns:sodipodi="http://sodipodi.sourceforge.net/DTD/sodipodi-0.dtd"
   xmlns:inkscape="http://www.inkscape.org/namespaces/inkscape"
   version="1.1"
   id="svg2"
   width="399.58646"
   height="399.68256"
   viewBox="0 0 399.58645 399.68254"
   sodipodi:docname="religion-pressure-group.svg"
   inkscape:version="0.92.5 (0.92.5+68)">
  <metadata
     id="metadata8">
    <rdf:RDF>
      <cc:Work
         rdf:about="">
        <dc:format>image/svg+xml</dc:format>
        <dc:type
           rdf:resource="http://purl.org/dc/dcmitype/StillImage" />
        <dc:title></dc:title>
      </cc:Work>
    </rdf:RDF>
  </metadata>
  <defs
     id="defs6" />
  <sodipodi:namedview
     pagecolor="#ffffff"
     bordercolor="#666666"
     borderopacity="1"
     objecttolerance="10"
     gridtolerance="10"
     guidetolerance="10"
     inkscape:pageopacity="0"
     inkscape:pageshadow="2"
     inkscape:window-width="1920"
     inkscape:window-height="1056"
     id="namedview4"
     showgrid="false"
     fit-margin-top="0"
     fit-margin-left="0"
     fit-margin-right="0"
     fit-margin-bottom="0"
     inkscape:zoom="0.72244892"
     inkscape:cx="434.99537"
     inkscape:cy="243.32715"
     inkscape:window-x="0"
     inkscape:window-y="24"
     inkscape:window-maximized="1"
     inkscape:current-layer="g817" />
  <g
     id="g817"
     transform="matrix(0.30607235,0,0,0.30607235,117.47929,-9.8617088)">
    <path
       style="fill:#000000;stroke-width:1.33333337"
       d="m 240.92964,1336.9902 c -8.4334,-0.4408 -14.1334,-0.9922 -12.6667,-1.2252 1.4667,-0.2331 -5.7867,-1.1914 -16.1187,-2.1296 -153.658099,-13.9535 -294.021099,-79.3373 -401.9599,-187.2406 -54.905,-54.887 -95.3125,-111.4954 -128.0282,-179.35984 -34.5298,-71.6272 -57.6672,-157.2596 -62.1411,-229.9865 -0.4717,-7.6678 -1.2599,-12.795 -1.7514,-11.3937 -1.4633,4.1714 -2.7052,-39.9831 -1.7653,-62.7614 0.4792,-11.6141 1.2416,-20.0609 1.6941,-18.7708 0.4526,1.2901 1.5479,-6.5369 2.434,-17.3934 9.8896,-121.1615 57.4299,-242.07104 134.1059,-341.07237 31.2686,-40.37294 73.5753,-82.66466 114.8639,-114.82321 C -75.601459,128.14962 -10.321659,92.665514 55.640641,69.705514 105.79324,52.248544 167.79874,39.302434 216.26364,36.169104 c 7.7935,-0.50386 13.5,-1.33021 12.681,-1.83633 -2.5037,-1.54741 37.3304,-2.71131 60.9339,-1.7804 12.245,0.48292 21.1113,1.28224 19.703,1.77625 -1.4084,0.49401 4.0087,1.32293 12.0379,1.84202 58.1207,3.7576 125.8618,19.43415 185.9768,43.03848 211.2874,82.962656 366.0766,273.790756 403.2315,497.114336 3.8804,23.3234 7.3912,52.8625 7.5273,63.3333 0.063,4.848 0.4408,6.4501 1.1148,4.7271 1.5752,-4.0271 2.8713,38.9469 1.891,62.703 -0.4792,11.6141 -1.2422,20.059 -1.6956,18.7665 -0.4534,-1.2925 -1.5739,7.0671 -2.4901,18.5768 -4.4741,56.2078 -20.166,122.4372 -42.4645,179.2266 -42.1704,107.39864 -113.3878,202.43104 -206.4477,275.48374 -57.5069,45.1432 -130.8348,83.7774 -202,106.4275 -45.9988,14.6403 -101.3122,25.4402 -144.6435,28.2416 -8.0292,0.5191 -13.4461,1.3481 -12.0376,1.8422 1.4086,0.4941 -7.012,1.2953 -18.7123,1.7806 -22.0352,0.9138 -24.395,0.8929 -49.9399,-0.4422 z m 96,-72.5656 c 157.5664,-19.8382 291.8411,-95.358 391.3415,-220.1011 12.4824,-15.6491 37.4276,-52.70704 47.9595,-71.24704 37.8453,-66.6222 62.3638,-141.7407 72.2711,-221.4197 3.4476,-27.7277 3.4476,-105.6057 0,-133.3333 -6.5683,-52.8248 -18.2949,-99.5084 -37.0095,-147.3333 -58.1339,-148.56131 -179.9545,-270.38054 -328.5626,-328.55916 -47.648,-18.6537 -94.4728,-30.4096 -147.3334,-36.98969 -27.7338,-3.45232 -105.5995,-3.45232 -133.3333,0 -132.439299,16.48608 -247.608099,71.58041 -341.8116,163.51548 -65.722,64.13933 -115.476,143.82737 -144.8724,232.03337 -12.6084,37.8323 -21.0119,75.4356 -26.2214,117.3333 -3.4452,27.7075 -3.4316,105.5793 0.023,133.3333 14.4033,115.707 58.8633,219.5163 130.9974,305.86464 100.816101,120.682 241.233101,194.2114 398.5515,208.7017 20.4326,1.882 98.1793,0.697 118,-1.7985 z M 28.015841,1029.7053 c -5.0376,-2.191 -8.4196,-8.0831 -8.4196,-14.6685 0,-3.5322 1.1126,-5.9299 4.3333,-9.3381 2.3834,-2.5221 43.9334,-30.49514 92.333399,-62.16224 121.5193,-79.5074 135.3333,-88.8822 135.3333,-91.8438 0,-5.157 -31.2937,-30.5424 -59.659,-48.3953 -39.3873,-24.79 -84.5549,-42.5962 -132.340999,-52.1722 -27.9631,-5.6037 -51.2105996,-7.744 -84,-7.7337 -30.2245,0.01 -44.0317,1.0472 -68.8586,5.1752 -12.505601,2.0792 -13.774801,2.0852 -16.836201,0.079 -6.7507,-4.4232 -6.583,-4.9963 20.855301,-71.2525 14.2134,-34.3218 48.348,-116.7034 75.8546,-183.07 27.5066,-66.3667 52.2336,-126.0667 54.949,-132.6667 2.7154,-6.6 5.8773,-13.05 7.0264,-14.33334 2.8242,-3.15377 14.5737,-3.07176 37.2179,0.2598 61.077699,8.98615 113.037299,30.60037 148.049099,61.58569 11.1215,9.84242 17.1137,16.56246 26.4847,29.70137 3.7082,5.19923 7.5742,9.45315 8.5912,9.45315 1.0169,0 4.8829,-4.2581 8.5911,-9.46243 9.2649,-13.003 16.5013,-21.06541 27.7946,-30.96724 34.6267,-30.36033 90.8287,-53.05787 150.6826,-60.85412 21.3199,-2.77702 30.6094,-2.69775 33.257,0.28378 1.1395,1.28334 14.4854,32.33334 29.6576,69.00001 15.1721,36.66666 30.599,73.86663 34.2821,82.66663 3.683,8.8 12.2692,29.5 19.0804,46 6.8111,16.5 27.7814,67.1632 46.6006,112.5849 24.1121,58.1964 33.9896,83.49 33.4475,85.6498 -1.1731,4.6743 -6.5556,7.5762 -12.4217,6.6971 -2.7345,-0.4098 -11.0631,-1.6913 -18.5079,-2.8477 -42.8886,-6.6618 -102.3716,-4.7327 -147.1306,4.7718 -48.9026,10.3843 -95.7628,29.7698 -135.4162,56.0199 -25.6904,17.0069 -53.9171,40.4498 -53.9171,44.7795 0,0.9655 13.05,10.3395 29,20.8311 15.95,10.4917 50.6,33.3727 77,50.8468 26.4,17.4741 64.6787,42.7681 85.0638,56.209 32.5837,21.48394 37.3182,25.04344 39.1675,29.44784 2.8583,6.8072 0.3756,14.2766 -6.2313,18.748 -6.4521,4.3665 -12.3954,3.3365 -23.6545,-4.0998 -4.9567,-3.2737 -32.1122,-21.232 -60.3455,-39.90724 -28.2334,-18.6753 -74.6956,-49.4031 -103.2493,-68.2841 -36.1795,-23.9235 -52.7498,-34.1593 -54.6667,-33.7689 -1.5129,0.3081 -22.5507,13.6543 -46.7507,29.6582 C 78.385641,1006.1522 44.857241,1028.2212 41.280441,1030.1354 c -3.7174,1.9895 -8.0218,1.8498 -13.2646,-0.4305 z M 231.76754,753.56826 c 8.1114,-4.1946 7.8317,0.6423 7.7971,-134.8686 l -0.032,-123.7095 -3.1812,-7.7364 c -10.382,-25.24818 -32.3753,-47.34088 -61.9117,-62.1913 -20.7893,-10.45252 -56.0412,-19.67576 -80.177199,-20.97738 -13.4175,-0.72358 -14.1387,-0.62338 -17.3339,2.40835 -1.9025,1.80513 -6.8846,11.75057 -11.6035,23.16336 -4.5482,11 -28.4336,68.59997 -53.0786,127.99997 -47.9475,115.5643 -47.3965,113.9492 -41.2054,120.7903 3.9138,4.3248 9.114,4.7533 26.3406004,2.1709 21.6364996,-3.2436 61.0728996,-2.5387 83.5474996,1.4933 48.378699,8.6792 92.607699,30.4458 126.660499,62.3336 12.8257,12.0104 16.1608,13.2689 24.1774,9.1234 z m 86.9164,0.5469 c 1.6018,-0.8479 7.1123,-5.4199 12.2457,-10.1599 34.5973,-31.9467 76.6535,-52.6867 125.301,-61.7923 21.7126,-4.064 62.5136,-4.8147 84.2465,-1.55 21.9492,3.2972 27.5732,1.495 29.3416,-9.4022 0.8689,-5.3545 6.0215,7.6294 -64.1113,-161.554 -28.7611,-69.38133 -42.9688,-102.12346 -45.0588,-103.83924 -6.1722,-5.06718 -43.1879,-0.27556 -72.3857,9.37022 -26.6888,8.8169 -46.5452,20.61881 -63.3333,37.64302 -11.6746,11.83868 -17.8945,20.98 -23.4223,34.423 l -3.1811,7.7364 -0.032,123.4677 c -0.023,88.4588 0.3958,124.6938 1.4759,127.7922 2.5986,7.4544 12.17,11.4347 18.9134,7.8651 z"
       id="path819"
       inkscape:connector-curvature="0" />
  </g>
</svg>
