<svg xmlns:osb="http://www.openswatchbook.org/uri/2009/osb" xmlns="http://www.w3.org/2000/svg" id="SVGRoot" version="1.1" height="500" width="750"><defs id="defs5036"><linearGradient osb:paint="solid" id="linearGradient111851"><stop id="stop111849" offset="0" stop-color="#10253f" stop-opacity="1"/></linearGradient><linearGradient id="linearGradient111845"><stop id="stop111843" offset="0" stop-color="#ec4220" stop-opacity="1"/></linearGradient><linearGradient id="linearGradient111839"><stop id="stop111837" offset="0" stop-color="#ec4220" stop-opacity="1"/></linearGradient><linearGradient osb:paint="solid" id="PickedBean"><stop id="stop111831" offset="0" stop-color="#754c29" stop-opacity="1"/></linearGradient><linearGradient osb:paint="solid" id="Eminence"><stop id="stop111825" offset="0" stop-color="#682e81" stop-opacity="1"/></linearGradient><linearGradient osb:paint="solid" id="TreePoppy"><stop id="stop111819" offset="0" stop-color="#f90" stop-opacity="1"/></linearGradient><linearGradient osb:paint="solid" id="PersianRed"><stop id="stop111813" offset="0" stop-color="#d11b22" stop-opacity="1"/></linearGradient><linearGradient osb:paint="solid" id="CranBerry"><stop id="stop111807" offset="0" stop-color="#d35a85" stop-opacity="1"/></linearGradient><linearGradient osb:paint="solid" id="PictonBlue"><stop id="stop111801" offset="0" stop-color="#49aadf" stop-opacity="1"/></linearGradient><linearGradient osb:paint="solid" id="LightingYellow"><stop id="stop111795" offset="0" stop-color="#ffc232" stop-opacity="1"/></linearGradient><linearGradient osb:paint="solid" id="Emrald"><stop id="stop111787" offset="0" stop-color="#4dd087" stop-opacity="1"/></linearGradient><linearGradient osb:paint="solid" id="TowerGray"><stop id="stop111781" offset="0" stop-color="#b0bbc0" stop-opacity="1"/></linearGradient><linearGradient osb:paint="solid" id="BlueBayoux"><stop id="stop111775" offset="0" stop-color="#506875" stop-opacity="1"/></linearGradient><linearGradient osb:paint="solid" id="PersianGreen"><stop id="stop111769" offset="0" stop-color="#00a79d" stop-opacity="1"/></linearGradient><linearGradient id="linearGradient111765"><stop id="stop111763" offset="0" stop-color="#002060" stop-opacity="1"/></linearGradient><linearGradient osb:paint="solid" id="DeepSapphire"><stop id="stop111757" offset="0" stop-color="#002060" stop-opacity="1"/></linearGradient><linearGradient osb:paint="solid" id="ChaletGreen"><stop id="stop111751" offset="0" stop-color="#4f6228" stop-opacity="1"/></linearGradient><linearGradient osb:paint="solid" id="White"><stop id="stop110311" offset="0" stop-color="#fff" stop-opacity="1"/></linearGradient><linearGradient osb:paint="solid" id="BigStone"><stop id="stop110305" offset="0" stop-color="#10253f" stop-opacity="1"/></linearGradient><linearGradient osb:paint="solid" id="Pomegranate"><stop id="stop110299" offset="0" stop-color="#ec4220" stop-opacity="1"/></linearGradient><linearGradient osb:paint="solid" id="Stiletto"><stop id="stop110293" offset="0" stop-color="#953735" stop-opacity="1"/></linearGradient><linearGradient osb:paint="solid" id="JapaneseLaurel"><stop id="stop110287" offset="0" stop-color="#060" stop-opacity="1"/></linearGradient><linearGradient osb:paint="solid" id="Black"><stop id="stop110281" offset="0" stop-color="#000" stop-opacity="1"/></linearGradient></defs><g transform="translate(0 -220)" id="layer1" font-style="normal" font-variant="normal" font-stretch="normal" word-spacing="0" writing-mode="lr-tb" text-anchor="start" fill-opacity="1" stroke="none" stroke-width="1" stroke-linecap="butt" stroke-linejoin="miter" stroke-opacity="1"><g id="text860" style="line-height:1.25;-inkscape-font-specification:'Fira Code';font-variant-ligatures:normal;font-variant-caps:normal;font-variant-numeric:normal;font-feature-settings:normal;text-align:start" aria-label="ARTICLE" font-weight="700" font-size="160" font-family="Concourse" letter-spacing="12" fill="#8b8a8f"><path id="path57" style="-inkscape-font-specification:'Concourse Bold'" d="M71.802 442.053h1.12l12.32 33.44h-25.76zm-27.52 73.28l8.32-21.28h39.68l8.32 21.28h23.2l-45.28-108.8h-12.8l-44.64 108.8z"/><path id="path59" style="-inkscape-font-specification:'Concourse Bold'" d="M170.952 425.733h11.36c8.8 0 15.2 5.92 15.2 15.04 0 8.48-5.6 14.56-15.36 14.56h-11.2zm0 89.6v-41.76h3.36l31.52 41.76h24.16v-1.28l-33.44-43.36c15.52-4.48 23.36-14.72 23.36-30.56 0-9.28-3.36-17.12-10.24-23.68-6.72-6.56-16.48-9.92-29.44-9.92h-30.88v108.8z"/><path id="path61" style="-inkscape-font-specification:'Concourse Bold'" d="M269.872 426.373v88.96h21.44v-88.96h31.04v-19.84h-83.52v19.84z"/><path id="path63" style="-inkscape-font-specification:'Concourse Bold'" d="M369.96 515.333v-108.8h-21.6v108.8z"/><path id="path65" style="-inkscape-font-specification:'Concourse Bold'" d="M399.165 463.493c0 15.2 5.28 28 15.84 38.56 10.56 10.4 24.16 15.68 40.64 15.68 6.56 0 13.44-1.12 20.64-3.52 7.36-2.4 13.12-5.28 17.28-8.96l-6.4-17.76h-.96c-8.48 6.56-18.56 9.92-30.24 9.92-9.28 0-17.28-3.04-24.16-9.44-6.72-6.24-10.08-14.72-10.08-25.12 0-24.48 13.28-38.4 33.76-38.4 12 0 23.2 4.16 30.08 9.76h.96l5.6-19.68c-11.2-6.88-23.36-10.4-36.48-10.4-16 0-29.44 5.6-40.32 16.64-10.72 11.04-16.16 25.28-16.16 42.72z"/><path id="path67" style="-inkscape-font-specification:'Concourse Bold'" d="M584.63 515.333v-19.84h-42.24v-88.96h-21.6v108.8z"/><path id="path69" style="-inkscape-font-specification:'Concourse Bold'" d="M677.307 515.333v-19.84h-44.48v-25.76h38.4v-19.84h-38.4v-23.52h42.72v-19.84h-64.32v108.8z"/></g><g id="text864" style="line-height:1.25;-inkscape-font-specification:'Fira Code';font-variant-ligatures:normal;font-variant-caps:normal;font-variant-numeric:normal;font-feature-settings:normal;text-align:start" aria-label="." font-weight="400" font-size="16" font-family="Fira Code" letter-spacing="0" fill="#f2665c"><path id="path72" style="-inkscape-font-specification:'Concourse Bold'" d="M703.974 511.744c4.8 4.8 12.8 4.64 17.44 0 4.96-4.96 4.8-12.64 0-17.44-4.8-4.8-12.48-4.96-17.44 0-4.64 4.64-4.8 12.64 0 17.44z" font-style="normal" font-variant="normal" font-weight="700" font-stretch="normal" font-size="160" font-family="Concourse" letter-spacing="12" fill="#f2665c" fill-opacity="1"/></g></g></svg>