<?xml version="1.0" encoding="UTF-8" standalone="no"?>
<!-- Created with Inkscape (http://www.inkscape.org/) -->

<svg
   xmlns:dc="http://purl.org/dc/elements/1.1/"
   xmlns:cc="http://creativecommons.org/ns#"
   xmlns:rdf="http://www.w3.org/1999/02/22-rdf-syntax-ns#"
   xmlns:svg="http://www.w3.org/2000/svg"
   xmlns="http://www.w3.org/2000/svg"
   xmlns:sodipodi="http://sodipodi.sourceforge.net/DTD/sodipodi-0.dtd"
   xmlns:inkscape="http://www.inkscape.org/namespaces/inkscape"
   version="1.1"
   id="svg2"
   width="400.00003"
   height="400.56122"
   viewBox="0 0 400.00002 400.56121"
   sodipodi:docname="parchment.svg"
   inkscape:version="0.92.5 (0.92.5+68)">
  <metadata
     id="metadata8">
    <rdf:RDF>
      <cc:Work
         rdf:about="">
        <dc:format>image/svg+xml</dc:format>
        <dc:type
           rdf:resource="http://purl.org/dc/dcmitype/StillImage" />
        <dc:title></dc:title>
      </cc:Work>
    </rdf:RDF>
  </metadata>
  <defs
     id="defs6" />
  <sodipodi:namedview
     pagecolor="#ffffff"
     bordercolor="#666666"
     borderopacity="1"
     objecttolerance="10"
     gridtolerance="10"
     guidetolerance="10"
     inkscape:pageopacity="0"
     inkscape:pageshadow="2"
     inkscape:window-width="1920"
     inkscape:window-height="1056"
     id="namedview4"
     showgrid="false"
     fit-margin-top="0"
     fit-margin-left="0"
     fit-margin-right="0"
     fit-margin-bottom="0"
     inkscape:zoom="0.24447514"
     inkscape:cx="-159.38812"
     inkscape:cy="376.27672"
     inkscape:window-x="0"
     inkscape:window-y="24"
     inkscape:window-maximized="1"
     inkscape:current-layer="svg2" />
  <path
     inkscape:connector-curvature="0"
     id="path823"
     d="M 34.08424,399.97652 C 19.83074,397.14608 6.8241395,382.75267 1.7778395,364.22527 c -2.22409999,-8.1655 -2.39289999,-24.78517 -0.3285,-32.36037 3.3279,-12.21204 11.4737005,-22.43254 20.6003005,-25.84723 6.7282,-2.51731 14.6646,-3.13423 40.4054,-3.14081 l 23.3127,-0.006 v -2.21381 c 0,-3.83032 -3.0528,-19.36813 -6.2345,-31.73174 -6.1735,-23.98923 -13.6527,-43.86944 -30.5509,-81.20652 C 31.14544,148.30806 22.35584,126.82162 15.70524,106.37215 8.3829395,83.857395 6.2073395,70.930865 6.8365395,53.679165 c 0.473,-12.97061 2.7582,-23.50536 6.9691005,-32.12851 3.1288,-6.40717 11.1269,-14.5177703 17.1086,-17.3492103 9.261,-4.38383 3.7683,-4.20035 125.7713,-4.20035 h 112.8415 l 6.0876,2.15428 c 13.7034,4.84942 23.4841,14.1709503 28.1618,26.8397003 2.6018,7.04696 2.5552,21.97807 -0.094,30.06628 -2.5885,7.90255 -8.4306,15.88485 -14.811,20.23689 l -4.9479,3.3749 h -23.0912 c -19.2325,0 -23.1625,0.18607 -23.5185,1.11361 -0.235,0.61246 0.6412,5.10849 1.9471,9.99117 5.3496,20.001335 16.4029,49.191205 30.0677,79.403525 4.2885,9.48186 8.7346,19.67944 9.8801,22.66146 1.1455,2.98195 2.4927,5.55838 2.9937,5.72535 0.5011,0.16703 2.877,-2.35468 5.2797,-5.60376 5.5375,-7.48768 14.7684,-16.66387 22.6652,-22.53063 8.065,-5.99177 8.5564,-5.98107 6.397,0.13941 -1.3703,3.88404 -1.375,3.91813 -0.5301,3.91813 0.3549,0 2.2795,-2.39189 4.277,-5.31525 4.7449,-6.94434 10.9547,-13.13758 18.1834,-18.13475 5.4879,-3.79383 13.3234,-7.84954 17.5652,-9.09191 1.9671,-0.57608 1.9577,-0.67764 0.3102,3.35198 -0.2203,0.53876 -0.048,0.97955 0.3831,0.97955 0.431,0 0.966,-0.47529 1.1889,-1.05613 0.6616,-1.72407 9.9784,-8.40387 15.043,-10.78542 4.1179,-1.93623 8.0892,-3.14563 16.2602,-4.95168 2.5064,-0.55398 3.0754,1.31143 0.7901,2.5903 -2.5878,1.44825 -0.2784,1.8382 3.4211,0.57766 4.2885,-1.46129 6.5636,-1.61275 6.5636,-0.43696 0,1.27622 -5.6437,9.28427 -9.7965,13.90043 -2.0524,2.28145 -5.9772,5.75057 -8.7219,7.70907 -2.7446,1.95851 -4.9903,3.92377 -4.9903,4.36714 0,0.80547 2.3086,0.55328 4.8977,-0.53499 0.9406,-0.39536 1.3713,-0.21946 1.3713,0.55997 0,1.90021 -7.3448,11.68792 -12.3043,16.39664 -4.383,4.1615 -16.0649,12.41227 -17.5738,12.41227 -0.3757,0 -0.6831,0.40118 -0.6831,0.89151 0,0.61963 1.3145,0.737 4.3099,0.38495 2.6619,-0.31284 4.31,-0.20999 4.31,0.26894 0,1.73647 -14.3949,17.38389 -20.4941,22.27739 -6.0084,4.82062 -17.4983,11.44019 -19.8573,11.44019 -0.5438,0 -1.4727,0.58642 -2.0642,1.30314 -0.9917,1.20165 -0.6327,1.26224 4.6058,0.77814 3.1247,-0.28875 5.6812,-0.34323 5.6812,-0.12101 0,1.11155 -13.0141,14.69408 -18.0187,18.80569 -3.1476,2.58595 -6.6262,5.45259 -7.7302,6.37025 l -2.0074,1.66853 2.5085,7.73493 c 5.4824,16.90531 9.0131,40.70247 9.0535,61.02123 0.042,20.88468 -2.2291,33.37265 -8.4065,46.23364 -7.3505,15.30349 -17.0789,24.34762 -31.4281,29.21738 l -6.269,2.12753 -114.4087,0.11895 c -63.7255,0.0663 -115.9552,-0.18812 -117.8996,-0.57425 z m 19.9331,-12.8771 c 7.7836,-1.64872 13.0053,-4.46506 17.6002,-9.49256 4.2022,-4.59788 10.0915,-15.63731 8.9486,-16.77395 -0.3716,-0.3695 -8.377,-0.77925 -17.7899,-0.91061 -16.907,-0.23591 -17.1325,-0.26124 -18.611,-2.0888 -2.1778,-2.69186 -1.8482,-5.6044 1.2087,-10.68086 7.864,-13.05941 4.182,-29.28338 -7.1311,-31.4219 -3.7078,-0.70085 -10.6602,1.03479 -14.6011,3.64519 -6.8647,4.54693 -10.6209,12.99394 -11.3073,25.4279 -1.0714,19.40715 8.4419,37.41002 22.4057,42.39997 3.8093,1.36127 12.5824,1.31378 19.2772,-0.10438 z m 211.8025,0.006 c 2.7019,-0.63703 6.7473,-2.08793 8.9896,-3.22422 5.1311,-2.60011 12.839,-10.29408 16.1469,-16.11776 9.7327,-17.13505 12.0339,-45.56206 6.2996,-77.8211 -1.2929,-7.27346 -5.1385,-22.84853 -5.8749,-23.79411 -0.1222,-0.15697 -2.2684,1.48863 -4.7692,3.65695 -7.4129,6.42733 -14.9581,10.59894 -24.4701,13.52888 -4.7735,1.4704 -8.679,2.94169 -8.679,3.26958 0,0.32789 1.7632,0.59612 3.9182,0.59612 5.2225,0 5.1635,1.51737 -0.196,5.03526 -5.9177,3.88439 -13.117,6.11049 -21.1585,6.54246 l -6.8574,0.36838 -8.8669,10.28709 c -10.2529,11.89503 -17.0963,20.28138 -23.6833,29.02319 -5.1842,6.88004 -8.6186,9.57467 -10.3605,8.12894 -0.6549,-0.54358 -0.8875,-1.6218 -0.5984,-2.77402 1.1839,-4.71695 14.0621,-23.0433 28.4436,-40.47696 l 7.053,-8.5498 0.5421,-5.50108 c 0.5258,-5.33582 3.3191,-17.49062 5.0259,-21.86993 1.1217,-2.87775 2.446,-2.73634 2.446,0.26124 0,4.09662 1.6743,2.17214 3.1529,-3.62403 0.7651,-2.99912 2.018,-7.03973 2.7844,-8.97925 1.597,-4.0419 7.9403,-13.76613 10.4443,-16.01115 l 1.6889,-1.51419 -0.5233,4.45277 c -0.7011,5.9652 0.5797,5.76226 2.8074,-0.4449 3.343,-9.31454 10.5059,-21.16173 18.3526,-30.35431 3.2099,-3.76051 3.4253,-4.26782 2.4581,-5.78854 -1.4677,-2.30778 -14.7498,-31.81608 -21.4885,-47.74054 -10.3545,-24.46875 -18.5541,-47.82718 -22.7975,-64.944295 -0.8898,-3.58889 -1.9517,-7.31254 -2.36,-8.27469 l -0.7422,-1.74946 -84.4583,-0.20963 -84.4583,-0.20958 -3.6965,-1.70773 c -7.9829,-3.68798 -14.0414,-11.60804 -16.6528,-21.76966 -1.3327,-5.18583 -1.555,-15.5783 -0.4366,-20.40545 1.3477,-5.81668 1.5908,-5.87716 23.6154,-5.87716 h 19.5038 v -1.71167 c 0,-5.13076 -6.8722,-13.70284 -13.1745,-16.43348 -5.2147,-2.25942 -14.1556,-2.74946 -20.4952,-1.12336 -14.3097,3.6704 -20.7325,13.79052 -23.559,37.12133 -2.951,24.35743 7.6795,58.264485 41.9417,133.777975 11.8522,26.12205 17.9105,41.06015 23.5179,57.98796 20.2544,61.1453 19.9937,112.34826 -0.7156,140.47971 -1.9165,2.60346 -3.2749,4.94328 -3.0185,5.19964 0.2563,0.25636 40.8716,0.46089 90.2561,0.45454 76.4544,-0.01 90.5195,-0.1836 94.7026,-1.16985 z m -138.8051,-38.4983 c -1.2222,-1.22216 -2.0659,-2.93882 -2.0659,-4.20311 0,-1.26424 0.8438,-2.9809 2.0659,-4.20306 l 2.0659,-2.06588 h 20.9441 20.9441 l 2.0659,2.06588 c 2.6775,2.67758 2.6775,5.72859 0,8.40617 l -2.0659,2.06588 h -20.9441 -20.9441 z m 3.1345,-43.88284 c -1.2221,-1.22215 -2.0659,-2.93875 -2.0659,-4.20305 0,-1.2643 0.8438,-2.98096 2.0659,-4.20305 l 2.0659,-2.06594 h 37.8988 c 30.6548,0 37.8988,0.19553 37.8988,1.02298 0,0.56262 -1.9472,3.38365 -4.3272,6.26899 l -4.3271,5.24601 h -33.5717 -33.5716 z m -12.538,-43.88283 c -1.2221,-1.2221 -2.0658,-2.93876 -2.0658,-4.20305 0,-1.2643 0.8437,-2.9809 2.0658,-4.20306 l 2.066,-2.06594 h 52.7875 c 37.925,0 52.7876,0.24314 52.7876,0.86353 0,0.47494 -1.4986,3.29298 -3.3304,6.2623 l -3.3303,5.39876 -49.4572,0.007 -49.4572,0.007 -2.066,-2.06594 z m -12.5379,-43.88278 c -2.6572,-2.65718 -2.7125,-5.97854 -0.1425,-8.54862 l 1.9235,-1.92342 h 68.1038 68.1038 l 2.066,2.06588 c 1.2221,1.22215 2.0658,2.93881 2.0658,4.20305 0,1.2643 -0.8437,2.98096 -2.0658,4.20311 l -2.066,2.06588 h -67.9613 -67.9614 z m -18.8069,-43.88283 c -1.2222,-1.22216 -2.0659,-2.93876 -2.0659,-4.20306 0,-1.26429 0.8437,-2.98095 2.0659,-4.20305 l 2.0659,-2.06594 h 67.9614 67.9613 l 2.0659,2.06594 c 1.2222,1.2221 2.0659,2.93876 2.0659,4.20305 0,1.2643 -0.8437,2.9809 -2.0659,4.20306 l -2.0659,2.06594 h -67.9613 -67.9614 z M 67.45954,129.193 c -1.2222,-1.22209 -2.066,-2.93875 -2.066,-4.20305 0,-1.26424 0.8438,-2.9809 2.066,-4.20305 l 2.0659,-2.06588 h 67.9613 67.9614 l 2.0659,2.06588 c 1.2222,1.22215 2.0659,2.93881 2.0659,4.20305 0,1.2643 -0.8437,2.98096 -2.0659,4.20305 l -2.0659,2.06594 h -67.9614 -67.9613 z m 17.3392,217.36598 c 1.1992,-1.48656 2.5363,-13.17865 2.5363,-22.17806 0,-6.58994 -0.221,-8.10437 -1.2396,-8.49526 -0.6817,-0.26159 -7.0291,-0.47564 -14.1052,-0.47564 -14.3,0 -13.7216,-0.27223 -11.6852,5.49956 1.9113,5.41715 2.2501,12.99364 0.8717,19.48738 -0.6758,3.18354 -1.0406,6.09273 -0.8106,6.46488 0.6955,1.12535 23.5086,0.8426 24.4326,-0.30286 z m 202.7964,-81.39376 c 3.3824,-0.85172 4.0702,-1.69762 2.8818,-3.54417 -0.4098,-0.63667 -1.9875,-0.31448 -5.4734,1.11784 -2.6937,1.10679 -4.8977,2.30273 -4.8977,2.65765 0,0.90679 3.3847,0.80224 7.4893,-0.23132 z M 66.97304,68.685205 c 5.271,-2.80158 10.4052,-12.2674 11.1139,-20.49014 l 0.2364,-2.74269 -16.652,-0.21152 -16.6519,-0.21146 v 4.20094 c 0,8.60545 3.935,16.45252 9.6752,19.2939 4.0411,2.00029 8.7028,2.06141 12.2784,0.16097 z m 217.4604,-1.78307 c 2.0028,-1.84619 4.6019,-5.45371 6.0555,-8.40534 2.4268,-4.92736 2.5467,-5.59647 2.5467,-14.20128 0,-8.15698 -0.2031,-9.46353 -2.1001,-13.51101 -2.6025,-5.55251 -8.0147,-11.4389 -13.0244,-14.16555 -8.5123,-4.63297 -4.7315,-4.47052 -104.02,-4.47052 -50.0482,0 -91.2017,0.20499 -91.4523,0.45559 -0.2505,0.25055 0.8995,2.98343 2.5556,6.07305 4.2653,7.95745 5.7553,14.17907 5.7553,24.0326 0,8.97214 -1.411,15.66769 -4.6479,22.05535 -1.0457,2.06365 -1.9013,4.11642 -1.9013,4.56173 0,0.55287 31.1999,0.8097 98.362,0.8097 h 98.362 z"
     style="fill:#000000;stroke-width:0.78362167" />
</svg>
