<?xml version="1.0" encoding="UTF-8" standalone="no"?>
<!-- Created with Inkscape (http://www.inkscape.org/) -->

<svg
   xmlns:dc="http://purl.org/dc/elements/1.1/"
   xmlns:cc="http://creativecommons.org/ns#"
   xmlns:rdf="http://www.w3.org/1999/02/22-rdf-syntax-ns#"
   xmlns:svg="http://www.w3.org/2000/svg"
   xmlns="http://www.w3.org/2000/svg"
   xmlns:sodipodi="http://sodipodi.sourceforge.net/DTD/sodipodi-0.dtd"
   xmlns:inkscape="http://www.inkscape.org/namespaces/inkscape"
   version="1.1"
   id="svg2"
   width="400"
   height="401.38461"
   viewBox="0 0 400 401.38461"
   sodipodi:docname="law-balance.svg"
   inkscape:version="0.92.5 (0.92.5+68)">
  <metadata
     id="metadata8">
    <rdf:RDF>
      <cc:Work
         rdf:about="">
        <dc:format>image/svg+xml</dc:format>
        <dc:type
           rdf:resource="http://purl.org/dc/dcmitype/StillImage" />
        <dc:title></dc:title>
      </cc:Work>
    </rdf:RDF>
  </metadata>
  <defs
     id="defs6" />
  <sodipodi:namedview
     pagecolor="#ffffff"
     bordercolor="#666666"
     borderopacity="1"
     objecttolerance="10"
     gridtolerance="10"
     guidetolerance="10"
     inkscape:pageopacity="0"
     inkscape:pageshadow="2"
     inkscape:window-width="1920"
     inkscape:window-height="1056"
     id="namedview4"
     showgrid="false"
     fit-margin-top="0"
     fit-margin-left="0"
     fit-margin-right="0"
     fit-margin-bottom="0"
     inkscape:zoom="0.50589496"
     inkscape:cx="496.24701"
     inkscape:cy="291.18369"
     inkscape:window-x="0"
     inkscape:window-y="24"
     inkscape:window-maximized="1"
     inkscape:current-layer="svg2" />
  <path
     style="fill:#000000;stroke-width:0.63906717"
     d="m 292.78611,400.65875 c 1.13338,-0.60653 1.23582,-1.41649 1.23256,-9.74577 0,-4.99629 -0.30106,-10.15535 -0.66469,-11.46454 -0.97675,-3.51705 -4.35697,-7.56912 -8.27662,-9.92172 l -3.46042,-2.07696 H 264.82532 248.0337 l -0.29506,-1.4379 c -1.99503,-9.72092 -3.44795,-13.69943 -7.07223,-19.36503 -4.67056,-7.3012 -13.54235,-15.3029 -20.93578,-18.88239 l -3.03557,-1.46965 v -89.50648 -89.50647 l 2.84442,-1.71814 c 5.27844,-3.18824 9.07316,-10.27594 10.24138,-19.1283 0.69779,-5.28777 2.24165,-5.02652 -29.70155,-5.02652 -33.43689,0 -31.36101,-0.55995 -28.77291,7.76128 1.40448,4.51551 4.96644,10.3109 9.29926,15.13004 l 2.85791,3.17873 -0.0185,89.695 -0.0185,89.69505 -4.97201,2.74238 c -12.37816,6.82714 -21.72087,19.64608 -24.54996,33.68447 l -0.90153,4.47346 -17.20216,0.31953 c -15.083,0.28017 -17.49695,0.46607 -19.59482,1.5089 -3.10126,1.54156 -6.0087,4.89436 -8.08733,9.3261 -1.4834,3.16263 -1.68509,4.46938 -1.874,12.14202 -0.18814,7.64089 -0.0856,8.69023 0.92096,9.42624 1.46902,1.07415 183.6196,1.23775 185.62084,0.16667 z"
     id="path890"
     inkscape:connector-curvature="0" />
  <path
     style="fill:#000000;stroke-width:0.63906717"
     d="m 322.72679,103.52847 c -2.08269,-0.0493 -4.19069,0.96499 -6.39598,3.04609 -2.40002,2.26478 -3.65478,5.42934 -27.92119,70.43245 l -25.40877,68.06233 -8.45408,0.17789 -8.45408,0.1779 v 1.63663 c 0,2.31086 4.95913,12.30045 9.47765,19.09489 12.04316,18.10892 30.62022,30.52252 51.61397,34.48411 7.24197,1.36665 26.07184,0.89707 33.49064,-0.83473 20.54517,-4.79595 37.43876,-16.54969 49.8706,-34.69485 4.50542,-6.57594 9.74271,-16.71716 9.44208,-18.28479 -0.18853,-0.98315 -1.19129,-1.14043 -8.29261,-1.29726 -5.40331,-0.11939 -8.28328,-0.43604 -8.69766,-0.9579 -0.34069,-0.42913 -12.05181,-30.97558 -26.02456,-67.88171 -23.87741,-63.0671 -25.56044,-67.26581 -28.00876,-69.8139 -2.09755,-2.18302 -4.15456,-3.29782 -6.23725,-3.34715 z m -0.0383,34.59359 c 0.15021,0.0465 0.29677,0.32742 0.50632,0.8621 9.36093,23.88487 40.25125,105.58156 40.05084,105.92371 -0.15447,0.26362 -18.55684,0.47894 -40.89652,0.47894 h -40.61737 l 0.29011,-1.43684 c 0.31301,-1.54775 39.25604,-103.6911 40.14115,-105.28603 0.22256,-0.40101 0.37527,-0.58836 0.52547,-0.54188 z"
     id="path888"
     inkscape:connector-curvature="0" />
  <path
     style="fill:#000000;stroke-width:0.63906717"
     d="m 76.74284,102.96741 c -2.807359,-0.019 -5.609365,1.44065 -7.772615,4.38168 -0.646359,0.87872 -12.506295,31.93836 -26.355711,69.02023 l -25.17888,67.42191 -8.5334403,0.3859 c -4.69261,0.21223 -8.60434,0.42756 -8.6922,0.47895 -1.34652,0.78707 4.00354,12.25733 9.72945,20.86288 4.5116903,6.78063 12.4185203,15.19197 18.8075203,20.00627 9.17022,6.90996 21.86737,12.417 32.655915,14.16312 2.636147,0.42664 5.222857,0.86009 5.750095,0.96337 2.432474,0.47662 14.956372,0.26897 19.828364,-0.32843 7.426473,-0.91067 16.457032,-3.3824 23.137202,-6.3303 16.4469,-7.25775 32.40228,-23.05876 41.44662,-41.04703 2.6727,-5.31584 3.11717,-7.82482 1.49157,-8.44862 -0.55592,-0.21331 -4.38315,-0.38864 -8.50334,-0.38864 h -7.49072 l -25.47172,-67.26044 c -14.008988,-36.994 -26.176861,-68.2202 -27.039921,-69.39244 -2.186952,-2.97044 -5.000831,-4.46941 -7.808189,-4.48841 z m 0.04926,34.42118 c 0.335701,-0.007 40.84726,105.4785 40.84726,106.35612 0,0.20118 -18.434873,0.36399 -40.96768,0.36399 -32.508896,0 -40.907416,-0.16253 -40.669356,-0.7964 10.39832,-27.68683 40.52469,-105.92083 40.789776,-105.92371 z"
     id="path884"
     inkscape:connector-curvature="0" />
  <path
     style="fill:#000000;stroke-width:0.63906717"
     d="m 206.31987,104.88918 c 7.2536,-2.25757 14.6609,-8.564654 19.63757,-16.720744 1.85771,-3.04451 2.25617,-4.46574 2.92936,-10.44843 0.89201,-7.92732 1.64688,-9.265 6.81553,-12.07811 4.65004,-2.5309 9.8663,-3.66627 16.8442,-3.66627 11.51229,0 24.74986,3.73043 39.54932,11.14521 11.72886,5.8764 14.65886,7.76812 18.36647,11.85827 1.83655,2.02603 4.79064,4.61509 6.56469,5.75352 2.89178,1.85566 3.60421,2.04125 6.88589,1.79387 7.26338,-0.5475 13.20658,-5.22559 15.06831,-11.86071 1.29168,-4.60365 1.30184,-5.48083 0.10966,-9.49539 -2.93984,-9.89947 -13.23278,-14.06108 -22.94801,-9.2783 l -4.04919,1.99344 -6.31967,-3.63527 c -7.83657,-4.50785 -20.19261,-9.90547 -27.56745,-12.04258 -20.86867,-6.0475 -39.86545,-4.15757 -52.62513,5.23563 l -3.84572,2.83106 -4.59732,-3.01352 c -2.52847,-1.65742 -4.70456,-3.09418 -4.83576,-3.19278 -0.1312,-0.0985 0.92563,-1.50175 2.34851,-3.1182 6.16176,-7.00016 6.09108,-15.39737 -0.23824,-28.29905 C 210.63766,10.955436 202.46079,-0.01939426 200.51701,2.5737136e-5 198.76462,0.01722574 191.50284,9.0747957 187.1196,16.709986 c -7.22964,12.59313 -7.60707,23.51888 -1.04653,30.29907 l 1.90486,1.96877 -3.05602,2.0015 c -1.68081,1.10079 -3.68735,2.46826 -4.45896,3.03876 -1.32977,0.9832 -1.55683,0.93137 -4.35364,-0.99285 -3.79875,-2.6136 -9.84119,-5.34414 -15.05004,-6.80096 -6.46531,-1.8083 -23.19392,-1.6093 -31.27735,0.37206 -11.91132,2.91965 -25.68277,8.44765 -35.763865,14.35602 l -4.052644,2.37522 -3.257901,-1.41694 c -3.910709,-1.70082 -11.921033,-2.36136 -15.262465,-1.25859 -3.293295,1.08686 -7.769394,5.31059 -9.67016,9.12499 -3.001385,6.02302 -1.795013,12.70197 3.06503,16.96915 3.024507,2.65551 7.895029,5.1211 11.142002,5.64035 5.00773,0.80075 10.789179,-2.2986 14.594634,-7.82397 2.019261,-2.93186 3.43179,-4.06831 8.805961,-7.08457 30.660268,-17.20836 57.206618,-20.34407 69.688488,-8.23165 l 2.71521,2.63482 0.42191,6.07114 c 0.33992,4.89167 0.79442,6.83737 2.33924,10.01526 3.18812,6.5583 10.35519,12.195964 20.69012,16.274874 5.39859,2.13066 6.16981,2.17571 11.08239,0.64674 z"
     id="path819"
     inkscape:connector-curvature="0" />
</svg>
