<?xml version="1.0" encoding="UTF-8" standalone="no"?>
<!-- Created with Inkscape (http://www.inkscape.org/) -->

<svg
   xmlns:dc="http://purl.org/dc/elements/1.1/"
   xmlns:cc="http://creativecommons.org/ns#"
   xmlns:rdf="http://www.w3.org/1999/02/22-rdf-syntax-ns#"
   xmlns:svg="http://www.w3.org/2000/svg"
   xmlns="http://www.w3.org/2000/svg"
   xmlns:sodipodi="http://sodipodi.sourceforge.net/DTD/sodipodi-0.dtd"
   xmlns:inkscape="http://www.inkscape.org/namespaces/inkscape"
   version="1.1"
   id="svg2"
   width="399.99997"
   height="552.26001"
   viewBox="0 0 399.99997 552.26001"
   sodipodi:docname="politician.svg"
   inkscape:version="0.92.5 (0.92.5+68)">
  <metadata
     id="metadata8">
    <rdf:RDF>
      <cc:Work
         rdf:about="">
        <dc:format>image/svg+xml</dc:format>
        <dc:type
           rdf:resource="http://purl.org/dc/dcmitype/StillImage" />
        <dc:title></dc:title>
      </cc:Work>
    </rdf:RDF>
  </metadata>
  <defs
     id="defs6" />
  <sodipodi:namedview
     pagecolor="#ffffff"
     bordercolor="#666666"
     borderopacity="1"
     objecttolerance="10"
     gridtolerance="10"
     guidetolerance="10"
     inkscape:pageopacity="0"
     inkscape:pageshadow="2"
     inkscape:window-width="1920"
     inkscape:window-height="1056"
     id="namedview4"
     showgrid="false"
     inkscape:zoom="0.34570311"
     inkscape:cx="17.300288"
     inkscape:cy="-52.943177"
     inkscape:window-x="0"
     inkscape:window-y="24"
     inkscape:window-maximized="1"
     inkscape:current-layer="svg2"
     fit-margin-top="0"
     fit-margin-left="0"
     fit-margin-right="0"
     fit-margin-bottom="0" />
  <path
     style="fill:#000000;stroke-width:2.40620828"
     d="m 109.08555,0 c -1.6521,0 -3.55418,0.89502 -4.22966,1.98794 -1.15406,1.86731 9.60871,81.9477 11.98756,89.19301 3.42292,10.42527 3.25543,-4.49808 -0.50756,-45.23271 C 113.30078,13.0934 111.23346,0 109.08555,0 Z M 51.234343,21.65588 c -0.602953,0 -3.130356,1.08992 -5.618417,2.42148 -4.090705,2.18929 -1.829344,5.98588 23.61914,39.64604 25.214348,33.3505 31.750664,40.72804 31.750664,35.83581 0,-2.10334 -48.408145,-77.90333 -49.751387,-77.90333 z M 280.42567,60.15639 c -10.49203,0 -13.67586,7.59852 -23.36889,55.77867 -5.11852,25.44226 -10.11461,47.01162 -11.10287,47.92912 -7.97591,7.40481 -68.04038,43.89916 -72.69381,44.16826 -5.61773,0.32483 -5.86826,0.9663 -4.81123,12.25545 2.4988,26.68729 1.20457,45.67467 -3.60931,52.97299 l -4.65968,7.06355 -1.77295,-8.42056 c -0.97468,-4.63194 -2.50806,-15.18918 -3.4084,-23.46053 l -1.63547,-15.03997 h -7.97995 c -9.11619,0 -9.57683,0.92087 -12.00873,24.06325 -2.07284,19.72545 -3.8509,23.44534 -8.50866,17.81041 -2.58786,-3.13076 -3.42603,-12.00221 -3.42603,-36.17771 v -32.02913 l -9.62602,1.25128 c -20.080227,2.60594 -23.443366,3.51462 -29.85789,8.08217 -10.121432,7.20709 -19.786177,22.78212 -26.601046,42.87116 l -6.185892,18.23338 -20.411635,6.80976 c -26.9578807,8.99453 -34.043141,17.57298 -25.0854238,30.36193 3.8918672,5.55641 8.2830828,7.11424 8.2830828,2.9396 0,-1.32342 5.991386,-2.40385 13.312858,-2.40385 9.094258,0 19.380689,-2.34162 32.466197,-7.38781 l 19.15332,-7.3843 3.528247,-12.46692 c 1.939464,-6.85565 4.23264,-15.45208 5.096746,-19.10398 3.56129,-15.05067 5.85102,-7.80016 5.85102,18.52945 v 27.81356 h 54.139686 54.13968 l 0.007,-41.50709 0.0108,-41.50709 37.22809,-24.06325 c 24.81344,-16.03733 38.00972,-26.0671 39.57201,-30.07644 1.28921,-3.30853 6.69399,-27.9681 12.00872,-54.79879 11.42918,-57.69845 10.74099,-63.10657 -8.0434,-63.10657 z M 3.9607989,72.31667 c -1.089525,-0.0702 -1.6255259,1.71428 -1.1913437,3.96883 0.5191635,2.69582 13.9645008,10.02989 39.2759398,21.41972 21.168328,9.52552 40.654336,17.36909 43.301171,17.42973 4.335759,0.0993 -76.6603834,-42.51411 -81.3857671,-42.81828 z m 357.1809311,29.9178 c -1.6625,-0.0451 -3.45564,0.35621 -5.27299,1.32883 -5.33102,2.85307 -5.89951,7.57711 -1.71653,14.27511 2.39045,3.82773 -0.69258,29.10131 -16.95038,138.92326 -10.93049,73.83575 -19.82599,135.9533 -19.76661,138.03858 0.10737,3.76637 11.36935,16.00354 12.94629,14.06715 0.4533,-0.55665 2.5679,-5.34393 4.69844,-10.6376 l 3.87368,-9.626 -0.0493,8.42054 c -0.0258,4.63194 -0.90115,18.16922 -1.94563,30.07996 l -1.8963,21.65587 11.09228,12.49865 c 6.10136,6.87475 11.63251,12.55609 12.29422,12.62554 2.63783,0.27688 42.07184,-78.38353 41.54586,-82.87319 -0.31008,-2.64681 -8.66416,-64.32444 -18.5647,-137.0587 -16.36219,-120.20484 -17.65959,-132.61914 -14.25749,-136.37842 5.9614,-6.58727 1.17339,-15.14439 -6.03078,-15.33958 z m -215.43788,4.74428 c -9.73803,-0.3161 -19.94145,2.59205 -29.29746,9.72822 -27.661566,21.0985 -18.037624,68.02862 15.94936,77.77997 11.134,3.19451 13.9935,3.22822 24.50031,0.31018 11.96962,-3.32428 23.24784,-13.19008 28.63835,-25.05723 14.46699,-31.849 -10.57648,-61.81283 -39.79056,-62.76114 z m -1.66366,44.61236 c 10.47596,0 15.86737,17.88654 8.54391,28.34227 -5.67797,8.10643 -12.72775,6.81814 -16.86226,-3.07708 -3.08762,-7.38973 -3.08762,-9.45138 0,-16.84111 2.35376,-5.63332 5.10844,-8.42408 8.31835,-8.42408 z m 1.7553,56.66339 c -10.17961,-0.44562 -16.34445,16.21252 -6.91198,18.67749 12.06664,3.15334 18.2155,-1.35622 15.50173,-11.37075 -1.48866,-5.49359 -3.35037,-7.07739 -8.58975,-7.30674 z M 19.173491,322.43424 v 12.02987 12.02986 h 8.149159 c 7.762115,0 16.215846,0.48726 17.553096,10.22874 v 195.5373 h 102.622184 3.60931 102.62221 v -195.5373 c 1.33725,-9.74148 9.79096,-10.22874 17.55309,-10.22874 h 8.14915 v -12.02986 -12.02987 h -125.124 -3.20045 -3.60931 -3.20045 z M 363.63723,478.893 c -0.1966,0.0491 -0.40952,0.28149 -0.6415,0.68026 -1.99635,3.43165 -3.24506,3.74741 -5.94268,1.50859 -2.91979,-2.42322 -3.34038,1.74465 -3.41546,28.74055 l -0.11622,42.43761 h 12.14619 l -0.0706,-43.94619 c -0.0471,-21.25876 -0.5835,-29.76432 -1.95974,-29.42082 z"
     id="path838"
     inkscape:connector-curvature="0" />
</svg>
